<svg xmlns="http://www.w3.org/2000/svg" width="980" height="780" viewBox="0 0 980 780">
<rect width="100%" height="100%" fill="#ffffff"/>
<style>text{font-family:Arial,Helvetica,sans-serif;fill:#222}.axis{stroke:#333;stroke-width:1}.grid{stroke:#e5e7eb;stroke-width:1}.line{fill:none;stroke-width:2.2}</style>
<text x="86" y="26" font-size="18" font-weight="700">train/loss</text>
<text x="948" y="26" text-anchor="end" font-size="13">latest step=1014 value=1.557</text>
<line class="grid" x1="86" y1="46.00" x2="948" y2="46.00"/>
<text x="76" y="50.00" text-anchor="end" font-size="12">55.96</text>
<line class="grid" x1="86" y1="87.25" x2="948" y2="87.25"/>
<text x="76" y="91.25" text-anchor="end" font-size="12">41.21</text>
<line class="grid" x1="86" y1="128.50" x2="948" y2="128.50"/>
<text x="76" y="132.50" text-anchor="end" font-size="12">26.45</text>
<line class="grid" x1="86" y1="169.75" x2="948" y2="169.75"/>
<text x="76" y="173.75" text-anchor="end" font-size="12">11.69</text>
<line class="grid" x1="86" y1="211.00" x2="948" y2="211.00"/>
<text x="76" y="215.00" text-anchor="end" font-size="12">-3.065</text>
<line class="grid" x1="86.00" y1="46" x2="86.00" y2="211"/>
<text x="86.00" y="233" text-anchor="middle" font-size="12">1</text>
<line class="grid" x1="301.50" y1="46" x2="301.50" y2="211"/>
<text x="301.50" y="233" text-anchor="middle" font-size="12">254.2</text>
<line class="grid" x1="517.00" y1="46" x2="517.00" y2="211"/>
<text x="517.00" y="233" text-anchor="middle" font-size="12">507.5</text>
<line class="grid" x1="732.50" y1="46" x2="732.50" y2="211"/>
<text x="732.50" y="233" text-anchor="middle" font-size="12">760.8</text>
<line class="grid" x1="948.00" y1="46" x2="948.00" y2="211"/>
<text x="948.00" y="233" text-anchor="middle" font-size="12">1014</text>
<line class="axis" x1="86" y1="211" x2="948" y2="211"/>
<line class="axis" x1="86" y1="46" x2="86" y2="211"/>
<polyline class="line" stroke="#1f77b4" points="86.00,57.38 86.85,122.17 87.70,178.25 88.55,186.40 89.40,190.12 90.25,192.79 91.11,193.22 91.96,196.41 92.81,195.74 93.66,194.28 94.51,193.70 95.36,196.47 96.21,195.53 97.06,195.73 97.91,195.83 98.76,196.40 99.62,196.35 100.47,196.82 101.32,195.54 102.17,196.97 103.02,196.92 103.87,196.25 104.72,197.37 105.57,195.44 106.42,195.38 107.27,195.48 108.12,195.88 108.98,195.26 109.83,194.56 110.68,197.44 111.53,195.16 112.38,194.60 113.23,196.00 114.08,197.38 114.93,196.14 115.78,196.62 116.63,196.61 117.48,196.63 118.34,196.56 119.19,197.16 120.04,195.61 120.89,196.54 121.74,195.70 122.59,198.23 123.44,196.73 124.29,196.07 125.14,197.11 125.99,196.97 126.85,197.60 127.70,195.88 128.55,197.34 129.40,196.58 130.25,196.50 131.10,196.09 131.95,195.65 132.80,194.32 133.65,197.26 134.50,197.69 135.35,196.74 136.21,196.68 137.06,195.73 137.91,198.20 138.76,196.59 139.61,197.03 140.46,195.38 141.31,196.74 142.16,196.46 143.01,196.39 143.86,197.84 144.71,197.50 145.57,193.43 146.42,197.29 147.27,195.81 148.12,195.33 148.97,195.49 149.82,196.67 150.67,195.02 151.52,196.11 152.37,196.36 153.22,196.65 154.08,198.30 154.93,196.23 155.78,195.81 156.63,196.61 157.48,196.56 158.33,195.84 159.18,198.96 160.03,197.61 160.88,197.74 161.73,196.95 162.58,195.53 163.44,196.63 164.29,197.16 165.14,196.62 165.99,196.43 166.84,195.87 167.69,195.38 168.54,196.16 169.39,195.29 170.24,195.78 171.09,197.06 171.94,196.69 172.80,197.65 173.65,198.09 174.50,194.79 175.35,195.90 176.20,196.10 177.05,197.26 177.90,195.93 178.75,196.80 179.60,197.53 180.45,197.63 181.31,196.59 182.16,197.59 183.01,195.19 183.86,196.12 184.71,196.16 185.56,195.20 186.41,196.67 187.26,196.62 188.11,196.85 188.96,196.12 189.81,197.40 190.67,197.32 191.52,197.08 192.37,197.32 193.22,197.76 194.07,197.83 194.92,194.98 195.77,196.54 196.62,197.30 197.47,197.52 198.32,196.82 199.17,195.35 200.03,197.53 200.88,197.55 201.73,196.60 202.58,196.14 203.43,197.07 204.28,197.58 205.13,195.62 205.98,196.34 206.83,197.14 207.68,198.43 208.54,195.51 209.39,196.81 210.24,197.99 211.09,196.43 211.94,194.17 212.79,197.14 213.64,196.59 214.49,197.11 215.34,198.12 216.19,195.27 217.04,196.93 217.90,196.87 218.75,197.05 219.60,195.62 220.45,196.19 221.30,197.09 222.15,197.30 223.00,196.87 223.85,195.85 224.70,198.15 225.55,195.63 226.40,198.10 227.26,196.70 228.11,195.83 228.96,198.09 229.81,195.45 230.66,195.24 231.51,196.60 232.36,195.57 233.21,197.42 234.06,194.23 234.91,198.19 235.77,198.44 236.62,195.89 237.47,197.57 238.32,197.51 239.17,197.22 240.02,199.03 240.87,197.56 241.72,198.03 242.57,197.80 243.42,196.21 244.27,196.90 245.13,197.90 245.98,195.79 246.83,197.42 247.68,196.64 248.53,198.16 249.38,195.87 250.23,197.24 251.08,197.74 251.93,197.28 252.78,197.45 253.63,196.46 254.49,196.73 255.34,197.12 256.19,197.85 257.04,195.53 257.89,196.49 258.74,196.91 259.59,196.06 260.44,196.53 261.29,197.75 262.14,195.77 263.00,198.11 263.85,198.53 264.70,198.04 265.55,198.26 266.40,196.09 267.25,196.44 268.10,197.17 268.95,198.43 269.80,196.26 270.65,197.62 271.50,197.88 272.36,197.28 273.21,197.00 274.06,197.52 274.91,196.95 275.76,196.85 276.61,198.20 277.46,197.09 278.31,196.51 279.16,197.84 280.01,197.60 280.86,197.32 281.72,197.83 282.57,197.39 283.42,197.16 284.27,196.76 285.12,197.39 285.97,196.67 286.82,196.76 287.67,196.27 288.52,198.32 289.37,196.98 290.23,197.02 291.08,195.71 291.93,196.76 292.78,196.75 293.63,197.28 294.48,197.46 295.33,195.66 296.18,195.89 297.03,196.04 297.88,196.41 298.73,196.81 299.59,197.51 300.44,198.02 301.29,197.86 302.14,196.21 302.99,196.33 303.84,198.63 304.69,197.44 305.54,194.58 306.39,197.29 307.24,196.36 308.09,197.53 308.95,198.05 309.80,197.40 310.65,196.55 311.50,196.34 312.35,196.43 313.20,195.97 314.05,196.26 314.90,198.06 315.75,196.98 316.60,195.85 317.46,196.06 318.31,197.38 319.16,194.96 320.01,198.15 320.86,197.09 321.71,196.71 322.56,196.20 323.41,197.28 324.26,198.60 325.11,196.44 325.96,196.86 326.82,195.95 327.67,195.77 328.52,196.44 329.37,196.45 330.22,196.38 331.07,198.14 331.92,197.62 332.77,197.96 333.62,196.26 334.47,197.31 335.32,197.33 336.18,196.09 337.03,197.90 337.88,198.36 338.73,197.20 339.58,197.11 340.43,197.00 341.28,197.28 342.13,195.60 342.98,197.41 343.83,196.81 344.69,195.35 345.54,196.93 346.39,197.57 347.24,196.48 348.09,197.02 348.94,196.49 349.79,195.92 350.64,196.97 351.49,195.64 352.34,197.49 353.19,197.59 354.05,198.29 354.90,197.35 355.75,196.83 356.60,196.70 357.45,197.94 358.30,197.80 359.15,196.81 360.00,196.92 360.85,197.59 361.70,196.70 362.55,197.86 363.41,197.80 364.26,196.77 365.11,198.49 365.96,197.67 366.81,196.32 367.66,196.42 368.51,196.24 369.36,196.79 370.21,197.35 371.06,197.51 371.92,197.36 372.77,196.56 373.62,196.85 374.47,196.68 375.32,194.98 376.17,197.39 377.02,197.93 377.87,196.48 378.72,197.69 379.57,196.58 380.42,197.22 381.28,196.56 382.13,197.98 382.98,195.61 383.83,197.46 384.68,196.60 385.53,197.44 386.38,197.84 387.23,197.05 388.08,195.47 388.93,196.00 389.78,197.76 390.64,197.36 391.49,197.07 392.34,197.49 393.19,197.05 394.04,197.20 394.89,197.60 395.74,197.06 396.59,197.47 397.44,198.27 398.29,197.27 399.15,196.69 400.00,197.43 400.85,198.31 401.70,197.95 402.55,198.42 403.40,197.55 404.25,197.29 405.10,197.15 405.95,195.93 406.80,197.43 407.65,196.32 408.51,196.94 409.36,195.70 410.21,197.59 411.06,198.12 411.91,197.21 412.76,197.42 413.61,198.70 414.46,196.30 415.31,195.78 416.16,197.59 417.01,198.12 417.87,196.88 418.72,197.17 419.57,196.46 420.42,196.34 421.27,198.12 422.12,196.23 422.97,197.46 423.82,197.20 424.67,196.11 425.52,196.32 426.38,197.90 427.23,196.29 428.08,197.83 428.93,197.94 429.78,196.91 430.63,198.48 431.48,196.83 432.33,198.66 433.18,195.77 434.03,196.25 434.88,192.43 435.74,197.43 436.59,197.24 437.44,197.87 438.29,197.65 439.14,196.62 439.99,197.21 440.84,196.40 441.69,195.84 442.54,197.50 443.39,196.91 444.24,195.86 445.10,198.29 445.95,197.35 446.80,195.81 447.65,196.02 448.50,195.28 449.35,197.16 450.20,197.99 451.05,196.79 451.90,196.97 452.75,196.53 453.61,198.31 454.46,195.96 455.31,196.49 456.16,196.30 457.01,196.05 457.86,196.59 458.71,196.20 459.56,195.38 460.41,198.52 461.26,196.84 462.11,197.20 462.97,198.45 463.82,197.21 464.67,197.50 465.52,197.76 466.37,197.21 467.22,197.90 468.07,196.85 468.92,195.95 469.77,196.49 470.62,197.14 471.47,197.71 472.33,196.54 473.18,196.28 474.03,197.78 474.88,197.18 475.73,198.16 476.58,196.64 477.43,197.78 478.28,197.78 479.13,196.80 479.98,196.67 480.84,195.98 481.69,196.69 482.54,197.88 483.39,198.35 484.24,197.78 485.09,196.85 485.94,197.32 486.79,198.21 487.64,196.17 488.49,196.35 489.34,197.26 490.20,197.96 491.05,198.51 491.90,197.21 492.75,198.31 493.60,196.59 494.45,197.55 495.30,197.74 496.15,197.66 497.00,197.41 497.85,198.34 498.70,197.45 499.56,195.31 500.41,196.65 501.26,197.60 502.11,199.19 502.96,196.79 503.81,196.46 504.66,197.34 505.51,198.74 506.36,197.44 507.21,196.98 508.07,197.14 508.92,198.90 509.77,197.40 510.62,198.38 511.47,196.99 512.32,197.50 513.17,197.24 514.02,197.47 514.87,194.47 515.72,198.50 516.57,198.21 517.43,197.43 518.28,197.09 519.13,197.73 519.98,195.75 520.83,196.08 521.68,197.99 522.53,197.90 523.38,198.52 524.23,197.53 525.08,197.02 525.93,195.92 526.79,196.54 527.64,198.59 528.49,197.36 529.34,198.23 530.19,196.79 531.04,197.33 531.89,197.15 532.74,195.69 533.59,196.67 534.44,197.24 535.30,197.02 536.15,196.91 537.00,197.76 537.85,197.25 538.70,197.25 539.55,197.17 540.40,197.14 541.25,197.07 542.10,196.66 542.95,197.52 543.80,197.40 544.66,198.41 545.51,196.67 546.36,197.12 547.21,197.37 548.06,197.43 548.91,196.91 549.76,195.33 550.61,197.04 551.46,197.20 552.31,195.92 553.16,196.46 554.02,197.66 554.87,195.61 555.72,196.98 556.57,195.99 557.42,196.90 558.27,196.19 559.12,198.04 559.97,198.36 560.82,197.12 561.67,198.12 562.53,195.21 563.38,198.00 564.23,198.03 565.08,198.27 565.93,197.31 566.78,197.40 567.63,196.98 568.48,197.80 569.33,195.66 570.18,197.68 571.03,198.52 571.89,198.51 572.74,195.63 573.59,197.78 574.44,195.23 575.29,196.95 576.14,196.80 576.99,195.68 577.84,196.97 578.69,197.51 579.54,198.08 580.39,198.18 581.25,197.44 582.10,196.47 582.95,196.55 583.80,197.30 584.65,197.83 585.50,196.02 586.35,197.04 587.20,196.75 588.05,197.51 588.90,195.95 589.76,196.22 590.61,195.62 591.46,197.35 592.31,197.65 593.16,197.92 594.01,193.95 594.86,196.93 595.71,197.15 596.56,198.18 597.41,196.30 598.26,196.03 599.12,196.28 599.97,197.38 600.82,198.14 601.67,197.63 602.52,197.76 603.37,197.63 604.22,195.67 605.07,197.12 605.92,197.86 606.77,198.82 607.62,197.50 608.48,196.71 609.33,197.67 610.18,196.82 611.03,197.46 611.88,197.39 612.73,197.89 613.58,197.72 614.43,197.50 615.28,196.82 616.13,196.92 616.99,195.79 617.84,196.84 618.69,196.42 619.54,196.52 620.39,198.55 621.24,197.04 622.09,196.45 622.94,197.91 623.79,197.67 624.64,198.13 625.49,196.02 626.35,197.22 627.20,197.91 628.05,196.34 628.90,196.25 629.75,198.06 630.60,197.98 631.45,198.35 632.30,197.39 633.15,196.63 634.00,198.10 634.85,195.89 635.71,196.65 636.56,196.81 637.41,197.10 638.26,197.92 639.11,197.98 639.96,197.79 640.81,195.82 641.66,197.61 642.51,197.57 643.36,196.70 644.22,196.73 645.07,196.90 645.92,196.13 646.77,196.89 647.62,198.28 648.47,197.07 649.32,198.25 650.17,196.91 651.02,196.07 651.87,197.73 652.72,196.37 653.58,197.03 654.43,197.47 655.28,197.94 656.13,197.48 656.98,197.55 657.83,198.25 658.68,197.60 659.53,196.78 660.38,196.08 661.23,196.20 662.08,197.73 662.94,197.77 663.79,197.99 664.64,196.66 665.49,196.40 666.34,197.84 667.19,196.98 668.04,197.32 668.89,196.70 669.74,197.10 670.59,196.76 671.45,196.37 672.30,198.29 673.15,197.55 674.00,195.08 674.85,197.80 675.70,196.69 676.55,197.03 677.40,197.47 678.25,198.68 679.10,197.42 679.95,197.98 680.81,196.43 681.66,196.61 682.51,197.02 683.36,197.55 684.21,197.17 685.06,196.54 685.91,197.88 686.76,196.43 687.61,197.97 688.46,199.03 689.31,196.07 690.17,196.98 691.02,199.31 691.87,197.64 692.72,196.69 693.57,198.44 694.42,197.11 695.27,196.99 696.12,198.19 696.97,196.78 697.82,196.79 698.68,198.14 699.53,197.71 700.38,197.70 701.23,198.22 702.08,197.69 702.93,198.41 703.78,197.99 704.63,198.08 705.48,198.08 706.33,197.93 707.18,197.45 708.04,197.66 708.89,197.63 709.74,198.19 710.59,194.67 711.44,197.18 712.29,197.04 713.14,196.42 713.99,196.07 714.84,197.35 715.69,197.59 716.54,197.05 717.40,197.04 718.25,196.36 719.10,196.02 719.95,197.65 720.80,197.14 721.65,198.63 722.50,196.89 723.35,196.68 724.20,197.98 725.05,197.48 725.91,196.26 726.76,197.80 727.61,198.79 728.46,197.28 729.31,197.93 730.16,197.60 731.01,197.54 731.86,197.01 732.71,197.36 733.56,196.24 734.41,197.73 735.27,198.31 736.12,198.58 736.97,198.27 737.82,196.91 738.67,198.31 739.52,196.70 740.37,197.63 741.22,197.26 742.07,197.77 742.92,196.76 743.77,196.74 744.63,196.30 745.48,198.08 746.33,198.14 747.18,198.88 748.03,198.11 748.88,197.06 749.73,197.63 750.58,196.77 751.43,197.22 752.28,198.08 753.14,198.08 753.99,197.44 754.84,198.25 755.69,197.42 756.54,197.81 757.39,198.72 758.24,197.22 759.09,195.92 759.94,197.69 760.79,196.61 761.64,196.34 762.50,196.90 763.35,195.89 764.20,196.93 765.05,197.26 765.90,196.24 766.75,197.58 767.60,196.35 768.45,199.15 769.30,197.01 770.15,198.31 771.00,197.57 771.86,197.17 772.71,197.05 773.56,197.95 774.41,198.04 775.26,196.20 776.11,198.07 776.96,196.92 777.81,197.63 778.66,197.81 779.51,196.18 780.37,197.23 781.22,197.52 782.07,197.54 782.92,198.34 783.77,199.22 784.62,195.99 785.47,198.28 786.32,196.80 787.17,197.99 788.02,198.18 788.87,198.56 789.73,197.17 790.58,196.70 791.43,197.84 792.28,196.23 793.13,198.85 793.98,197.99 794.83,198.74 795.68,198.81 796.53,197.11 797.38,196.25 798.23,198.41 799.09,196.64 799.94,197.50 800.79,197.29 801.64,196.14 802.49,198.02 803.34,198.24 804.19,196.54 805.04,197.44 805.89,197.59 806.74,197.56 807.60,197.09 808.45,196.44 809.30,198.76 810.15,198.25 811.00,196.47 811.85,199.12 812.70,196.89 813.55,197.79 814.40,198.27 815.25,198.35 816.10,198.23 816.96,197.46 817.81,195.90 818.66,196.67 819.51,196.48 820.36,196.61 821.21,198.53 822.06,198.00 822.91,199.55 823.76,198.05 824.61,198.48 825.46,196.95 826.32,197.04 827.17,197.62 828.02,197.93 828.87,197.84 829.72,197.90 830.57,196.49 831.42,197.45 832.27,197.98 833.12,197.34 833.97,197.18 834.83,196.36 835.68,199.02 836.53,198.21 837.38,198.01 838.23,197.90 839.08,197.39 839.93,198.32 840.78,198.21 841.63,197.39 842.48,196.78 843.33,198.11 844.19,195.99 845.04,197.89 845.89,196.32 846.74,196.42 847.59,197.51 848.44,197.09 849.29,197.34 850.14,198.20 850.99,197.60 851.84,197.88 852.69,198.73 853.55,196.22 854.40,197.33 855.25,196.57 856.10,197.02 856.95,198.01 857.80,197.68 858.65,197.28 859.50,197.04 860.35,197.30 861.20,197.39 862.06,197.72 862.91,196.96 863.76,195.99 864.61,197.87 865.46,197.62 866.31,196.98 867.16,197.57 868.01,197.23 868.86,197.43 869.71,195.86 870.56,196.08 871.42,197.19 872.27,197.07 873.12,197.55 873.97,197.51 874.82,197.94 875.67,197.10 876.52,196.07 877.37,198.35 878.22,198.15 879.07,197.79 879.92,197.61 880.78,197.09 881.63,197.73 882.48,196.74 883.33,196.70 884.18,196.28 885.03,196.51 885.88,199.62 886.73,198.39 887.58,196.69 888.43,197.25 889.29,195.29 890.14,197.89 890.99,196.65 891.84,197.73 892.69,197.60 893.54,198.90 894.39,198.12 895.24,199.18 896.09,196.88 896.94,196.69 897.79,196.38 898.65,197.07 899.50,196.64 900.35,196.28 901.20,196.87 902.05,196.70 902.90,196.73 903.75,198.02 904.60,196.74 905.45,197.56 906.30,196.60 907.15,197.15 908.01,197.50 908.86,198.75 909.71,196.93 910.56,197.60 911.41,196.99 912.26,197.41 913.11,197.74 913.96,198.79 914.81,197.57 915.66,197.18 916.52,197.75 917.37,198.46 918.22,197.70 919.07,197.62 919.92,197.45 920.77,197.40 921.62,197.96 922.47,196.27 923.32,197.60 924.17,197.21 925.02,198.77 925.88,198.01 926.73,196.60 927.58,198.04 928.43,196.49 929.28,195.78 930.13,196.29 930.98,197.40 931.83,196.26 932.68,198.27 933.53,197.72 934.38,197.84 935.24,197.09 936.09,198.73 936.94,198.16 937.79,196.64 938.64,196.36 939.49,197.85 940.34,196.20 941.19,196.26 942.04,197.98 942.89,196.80 943.75,197.25 944.60,196.16 945.45,197.71 946.30,197.92 947.15,196.18 948.00,198.08"/>
<text x="517.0" y="257" text-anchor="middle" font-size="13">step</text>
<text x="86" y="286" font-size="18" font-weight="700">train/lr</text>
<text x="948" y="286" text-anchor="end" font-size="13">latest step=1014 value=2.000e-04</text>
<line class="grid" x1="86" y1="306.00" x2="948" y2="306.00"/>
<text x="76" y="310.00" text-anchor="end" font-size="12">2.100e-04</text>
<line class="grid" x1="86" y1="347.25" x2="948" y2="347.25"/>
<text x="76" y="351.25" text-anchor="end" font-size="12">2.050e-04</text>
<line class="grid" x1="86" y1="388.50" x2="948" y2="388.50"/>
<text x="76" y="392.50" text-anchor="end" font-size="12">2.000e-04</text>
<line class="grid" x1="86" y1="429.75" x2="948" y2="429.75"/>
<text x="76" y="433.75" text-anchor="end" font-size="12">1.950e-04</text>
<line class="grid" x1="86" y1="471.00" x2="948" y2="471.00"/>
<text x="76" y="475.00" text-anchor="end" font-size="12">1.900e-04</text>
<line class="grid" x1="86.00" y1="306" x2="86.00" y2="471"/>
<text x="86.00" y="493" text-anchor="middle" font-size="12">1</text>
<line class="grid" x1="301.50" y1="306" x2="301.50" y2="471"/>
<text x="301.50" y="493" text-anchor="middle" font-size="12">254.2</text>
<line class="grid" x1="517.00" y1="306" x2="517.00" y2="471"/>
<text x="517.00" y="493" text-anchor="middle" font-size="12">507.5</text>
<line class="grid" x1="732.50" y1="306" x2="732.50" y2="471"/>
<text x="732.50" y="493" text-anchor="middle" font-size="12">760.8</text>
<line class="grid" x1="948.00" y1="306" x2="948.00" y2="471"/>
<text x="948.00" y="493" text-anchor="middle" font-size="12">1014</text>
<line class="axis" x1="86" y1="471" x2="948" y2="471"/>
<line class="axis" x1="86" y1="306" x2="86" y2="471"/>
<polyline class="line" stroke="#d62728" points="86.00,388.50 86.85,388.50 87.70,388.50 88.55,388.50 89.40,388.50 90.25,388.50 91.11,388.50 91.96,388.50 92.81,388.50 93.66,388.50 94.51,388.50 95.36,388.50 96.21,388.50 97.06,388.50 97.91,388.50 98.76,388.50 99.62,388.50 100.47,388.50 101.32,388.50 102.17,388.50 103.02,388.50 103.87,388.50 104.72,388.50 105.57,388.50 106.42,388.50 107.27,388.50 108.12,388.50 108.98,388.50 109.83,388.50 110.68,388.50 111.53,388.50 112.38,388.50 113.23,388.50 114.08,388.50 114.93,388.50 115.78,388.50 116.63,388.50 117.48,388.50 118.34,388.50 119.19,388.50 120.04,388.50 120.89,388.50 121.74,388.50 122.59,388.50 123.44,388.50 124.29,388.50 125.14,388.50 125.99,388.50 126.85,388.50 127.70,388.50 128.55,388.50 129.40,388.50 130.25,388.50 131.10,388.50 131.95,388.50 132.80,388.50 133.65,388.50 134.50,388.50 135.35,388.50 136.21,388.50 137.06,388.50 137.91,388.50 138.76,388.50 139.61,388.50 140.46,388.50 141.31,388.50 142.16,388.50 143.01,388.50 143.86,388.50 144.71,388.50 145.57,388.50 146.42,388.50 147.27,388.50 148.12,388.50 148.97,388.50 149.82,388.50 150.67,388.50 151.52,388.50 152.37,388.50 153.22,388.50 154.08,388.50 154.93,388.50 155.78,388.50 156.63,388.50 157.48,388.50 158.33,388.50 159.18,388.50 160.03,388.50 160.88,388.50 161.73,388.50 162.58,388.50 163.44,388.50 164.29,388.50 165.14,388.50 165.99,388.50 166.84,388.50 167.69,388.50 168.54,388.50 169.39,388.50 170.24,388.50 171.09,388.50 171.94,388.50 172.80,388.50 173.65,388.50 174.50,388.50 175.35,388.50 176.20,388.50 177.05,388.50 177.90,388.50 178.75,388.50 179.60,388.50 180.45,388.50 181.31,388.50 182.16,388.50 183.01,388.50 183.86,388.50 184.71,388.50 185.56,388.50 186.41,388.50 187.26,388.50 188.11,388.50 188.96,388.50 189.81,388.50 190.67,388.50 191.52,388.50 192.37,388.50 193.22,388.50 194.07,388.50 194.92,388.50 195.77,388.50 196.62,388.50 197.47,388.50 198.32,388.50 199.17,388.50 200.03,388.50 200.88,388.50 201.73,388.50 202.58,388.50 203.43,388.50 204.28,388.50 205.13,388.50 205.98,388.50 206.83,388.50 207.68,388.50 208.54,388.50 209.39,388.50 210.24,388.50 211.09,388.50 211.94,388.50 212.79,388.50 213.64,388.50 214.49,388.50 215.34,388.50 216.19,388.50 217.04,388.50 217.90,388.50 218.75,388.50 219.60,388.50 220.45,388.50 221.30,388.50 222.15,388.50 223.00,388.50 223.85,388.50 224.70,388.50 225.55,388.50 226.40,388.50 227.26,388.50 228.11,388.50 228.96,388.50 229.81,388.50 230.66,388.50 231.51,388.50 232.36,388.50 233.21,388.50 234.06,388.50 234.91,388.50 235.77,388.50 236.62,388.50 237.47,388.50 238.32,388.50 239.17,388.50 240.02,388.50 240.87,388.50 241.72,388.50 242.57,388.50 243.42,388.50 244.27,388.50 245.13,388.50 245.98,388.50 246.83,388.50 247.68,388.50 248.53,388.50 249.38,388.50 250.23,388.50 251.08,388.50 251.93,388.50 252.78,388.50 253.63,388.50 254.49,388.50 255.34,388.50 256.19,388.50 257.04,388.50 257.89,388.50 258.74,388.50 259.59,388.50 260.44,388.50 261.29,388.50 262.14,388.50 263.00,388.50 263.85,388.50 264.70,388.50 265.55,388.50 266.40,388.50 267.25,388.50 268.10,388.50 268.95,388.50 269.80,388.50 270.65,388.50 271.50,388.50 272.36,388.50 273.21,388.50 274.06,388.50 274.91,388.50 275.76,388.50 276.61,388.50 277.46,388.50 278.31,388.50 279.16,388.50 280.01,388.50 280.86,388.50 281.72,388.50 282.57,388.50 283.42,388.50 284.27,388.50 285.12,388.50 285.97,388.50 286.82,388.50 287.67,388.50 288.52,388.50 289.37,388.50 290.23,388.50 291.08,388.50 291.93,388.50 292.78,388.50 293.63,388.50 294.48,388.50 295.33,388.50 296.18,388.50 297.03,388.50 297.88,388.50 298.73,388.50 299.59,388.50 300.44,388.50 301.29,388.50 302.14,388.50 302.99,388.50 303.84,388.50 304.69,388.50 305.54,388.50 306.39,388.50 307.24,388.50 308.09,388.50 308.95,388.50 309.80,388.50 310.65,388.50 311.50,388.50 312.35,388.50 313.20,388.50 314.05,388.50 314.90,388.50 315.75,388.50 316.60,388.50 317.46,388.50 318.31,388.50 319.16,388.50 320.01,388.50 320.86,388.50 321.71,388.50 322.56,388.50 323.41,388.50 324.26,388.50 325.11,388.50 325.96,388.50 326.82,388.50 327.67,388.50 328.52,388.50 329.37,388.50 330.22,388.50 331.07,388.50 331.92,388.50 332.77,388.50 333.62,388.50 334.47,388.50 335.32,388.50 336.18,388.50 337.03,388.50 337.88,388.50 338.73,388.50 339.58,388.50 340.43,388.50 341.28,388.50 342.13,388.50 342.98,388.50 343.83,388.50 344.69,388.50 345.54,388.50 346.39,388.50 347.24,388.50 348.09,388.50 348.94,388.50 349.79,388.50 350.64,388.50 351.49,388.50 352.34,388.50 353.19,388.50 354.05,388.50 354.90,388.50 355.75,388.50 356.60,388.50 357.45,388.50 358.30,388.50 359.15,388.50 360.00,388.50 360.85,388.50 361.70,388.50 362.55,388.50 363.41,388.50 364.26,388.50 365.11,388.50 365.96,388.50 366.81,388.50 367.66,388.50 368.51,388.50 369.36,388.50 370.21,388.50 371.06,388.50 371.92,388.50 372.77,388.50 373.62,388.50 374.47,388.50 375.32,388.50 376.17,388.50 377.02,388.50 377.87,388.50 378.72,388.50 379.57,388.50 380.42,388.50 381.28,388.50 382.13,388.50 382.98,388.50 383.83,388.50 384.68,388.50 385.53,388.50 386.38,388.50 387.23,388.50 388.08,388.50 388.93,388.50 389.78,388.50 390.64,388.50 391.49,388.50 392.34,388.50 393.19,388.50 394.04,388.50 394.89,388.50 395.74,388.50 396.59,388.50 397.44,388.50 398.29,388.50 399.15,388.50 400.00,388.50 400.85,388.50 401.70,388.50 402.55,388.50 403.40,388.50 404.25,388.50 405.10,388.50 405.95,388.50 406.80,388.50 407.65,388.50 408.51,388.50 409.36,388.50 410.21,388.50 411.06,388.50 411.91,388.50 412.76,388.50 413.61,388.50 414.46,388.50 415.31,388.50 416.16,388.50 417.01,388.50 417.87,388.50 418.72,388.50 419.57,388.50 420.42,388.50 421.27,388.50 422.12,388.50 422.97,388.50 423.82,388.50 424.67,388.50 425.52,388.50 426.38,388.50 427.23,388.50 428.08,388.50 428.93,388.50 429.78,388.50 430.63,388.50 431.48,388.50 432.33,388.50 433.18,388.50 434.03,388.50 434.88,388.50 435.74,388.50 436.59,388.50 437.44,388.50 438.29,388.50 439.14,388.50 439.99,388.50 440.84,388.50 441.69,388.50 442.54,388.50 443.39,388.50 444.24,388.50 445.10,388.50 445.95,388.50 446.80,388.50 447.65,388.50 448.50,388.50 449.35,388.50 450.20,388.50 451.05,388.50 451.90,388.50 452.75,388.50 453.61,388.50 454.46,388.50 455.31,388.50 456.16,388.50 457.01,388.50 457.86,388.50 458.71,388.50 459.56,388.50 460.41,388.50 461.26,388.50 462.11,388.50 462.97,388.50 463.82,388.50 464.67,388.50 465.52,388.50 466.37,388.50 467.22,388.50 468.07,388.50 468.92,388.50 469.77,388.50 470.62,388.50 471.47,388.50 472.33,388.50 473.18,388.50 474.03,388.50 474.88,388.50 475.73,388.50 476.58,388.50 477.43,388.50 478.28,388.50 479.13,388.50 479.98,388.50 480.84,388.50 481.69,388.50 482.54,388.50 483.39,388.50 484.24,388.50 485.09,388.50 485.94,388.50 486.79,388.50 487.64,388.50 488.49,388.50 489.34,388.50 490.20,388.50 491.05,388.50 491.90,388.50 492.75,388.50 493.60,388.50 494.45,388.50 495.30,388.50 496.15,388.50 497.00,388.50 497.85,388.50 498.70,388.50 499.56,388.50 500.41,388.50 501.26,388.50 502.11,388.50 502.96,388.50 503.81,388.50 504.66,388.50 505.51,388.50 506.36,388.50 507.21,388.50 508.07,388.50 508.92,388.50 509.77,388.50 510.62,388.50 511.47,388.50 512.32,388.50 513.17,388.50 514.02,388.50 514.87,388.50 515.72,388.50 516.57,388.50 517.43,388.50 518.28,388.50 519.13,388.50 519.98,388.50 520.83,388.50 521.68,388.50 522.53,388.50 523.38,388.50 524.23,388.50 525.08,388.50 525.93,388.50 526.79,388.50 527.64,388.50 528.49,388.50 529.34,388.50 530.19,388.50 531.04,388.50 531.89,388.50 532.74,388.50 533.59,388.50 534.44,388.50 535.30,388.50 536.15,388.50 537.00,388.50 537.85,388.50 538.70,388.50 539.55,388.50 540.40,388.50 541.25,388.50 542.10,388.50 542.95,388.50 543.80,388.50 544.66,388.50 545.51,388.50 546.36,388.50 547.21,388.50 548.06,388.50 548.91,388.50 549.76,388.50 550.61,388.50 551.46,388.50 552.31,388.50 553.16,388.50 554.02,388.50 554.87,388.50 555.72,388.50 556.57,388.50 557.42,388.50 558.27,388.50 559.12,388.50 559.97,388.50 560.82,388.50 561.67,388.50 562.53,388.50 563.38,388.50 564.23,388.50 565.08,388.50 565.93,388.50 566.78,388.50 567.63,388.50 568.48,388.50 569.33,388.50 570.18,388.50 571.03,388.50 571.89,388.50 572.74,388.50 573.59,388.50 574.44,388.50 575.29,388.50 576.14,388.50 576.99,388.50 577.84,388.50 578.69,388.50 579.54,388.50 580.39,388.50 581.25,388.50 582.10,388.50 582.95,388.50 583.80,388.50 584.65,388.50 585.50,388.50 586.35,388.50 587.20,388.50 588.05,388.50 588.90,388.50 589.76,388.50 590.61,388.50 591.46,388.50 592.31,388.50 593.16,388.50 594.01,388.50 594.86,388.50 595.71,388.50 596.56,388.50 597.41,388.50 598.26,388.50 599.12,388.50 599.97,388.50 600.82,388.50 601.67,388.50 602.52,388.50 603.37,388.50 604.22,388.50 605.07,388.50 605.92,388.50 606.77,388.50 607.62,388.50 608.48,388.50 609.33,388.50 610.18,388.50 611.03,388.50 611.88,388.50 612.73,388.50 613.58,388.50 614.43,388.50 615.28,388.50 616.13,388.50 616.99,388.50 617.84,388.50 618.69,388.50 619.54,388.50 620.39,388.50 621.24,388.50 622.09,388.50 622.94,388.50 623.79,388.50 624.64,388.50 625.49,388.50 626.35,388.50 627.20,388.50 628.05,388.50 628.90,388.50 629.75,388.50 630.60,388.50 631.45,388.50 632.30,388.50 633.15,388.50 634.00,388.50 634.85,388.50 635.71,388.50 636.56,388.50 637.41,388.50 638.26,388.50 639.11,388.50 639.96,388.50 640.81,388.50 641.66,388.50 642.51,388.50 643.36,388.50 644.22,388.50 645.07,388.50 645.92,388.50 646.77,388.50 647.62,388.50 648.47,388.50 649.32,388.50 650.17,388.50 651.02,388.50 651.87,388.50 652.72,388.50 653.58,388.50 654.43,388.50 655.28,388.50 656.13,388.50 656.98,388.50 657.83,388.50 658.68,388.50 659.53,388.50 660.38,388.50 661.23,388.50 662.08,388.50 662.94,388.50 663.79,388.50 664.64,388.50 665.49,388.50 666.34,388.50 667.19,388.50 668.04,388.50 668.89,388.50 669.74,388.50 670.59,388.50 671.45,388.50 672.30,388.50 673.15,388.50 674.00,388.50 674.85,388.50 675.70,388.50 676.55,388.50 677.40,388.50 678.25,388.50 679.10,388.50 679.95,388.50 680.81,388.50 681.66,388.50 682.51,388.50 683.36,388.50 684.21,388.50 685.06,388.50 685.91,388.50 686.76,388.50 687.61,388.50 688.46,388.50 689.31,388.50 690.17,388.50 691.02,388.50 691.87,388.50 692.72,388.50 693.57,388.50 694.42,388.50 695.27,388.50 696.12,388.50 696.97,388.50 697.82,388.50 698.68,388.50 699.53,388.50 700.38,388.50 701.23,388.50 702.08,388.50 702.93,388.50 703.78,388.50 704.63,388.50 705.48,388.50 706.33,388.50 707.18,388.50 708.04,388.50 708.89,388.50 709.74,388.50 710.59,388.50 711.44,388.50 712.29,388.50 713.14,388.50 713.99,388.50 714.84,388.50 715.69,388.50 716.54,388.50 717.40,388.50 718.25,388.50 719.10,388.50 719.95,388.50 720.80,388.50 721.65,388.50 722.50,388.50 723.35,388.50 724.20,388.50 725.05,388.50 725.91,388.50 726.76,388.50 727.61,388.50 728.46,388.50 729.31,388.50 730.16,388.50 731.01,388.50 731.86,388.50 732.71,388.50 733.56,388.50 734.41,388.50 735.27,388.50 736.12,388.50 736.97,388.50 737.82,388.50 738.67,388.50 739.52,388.50 740.37,388.50 741.22,388.50 742.07,388.50 742.92,388.50 743.77,388.50 744.63,388.50 745.48,388.50 746.33,388.50 747.18,388.50 748.03,388.50 748.88,388.50 749.73,388.50 750.58,388.50 751.43,388.50 752.28,388.50 753.14,388.50 753.99,388.50 754.84,388.50 755.69,388.50 756.54,388.50 757.39,388.50 758.24,388.50 759.09,388.50 759.94,388.50 760.79,388.50 761.64,388.50 762.50,388.50 763.35,388.50 764.20,388.50 765.05,388.50 765.90,388.50 766.75,388.50 767.60,388.50 768.45,388.50 769.30,388.50 770.15,388.50 771.00,388.50 771.86,388.50 772.71,388.50 773.56,388.50 774.41,388.50 775.26,388.50 776.11,388.50 776.96,388.50 777.81,388.50 778.66,388.50 779.51,388.50 780.37,388.50 781.22,388.50 782.07,388.50 782.92,388.50 783.77,388.50 784.62,388.50 785.47,388.50 786.32,388.50 787.17,388.50 788.02,388.50 788.87,388.50 789.73,388.50 790.58,388.50 791.43,388.50 792.28,388.50 793.13,388.50 793.98,388.50 794.83,388.50 795.68,388.50 796.53,388.50 797.38,388.50 798.23,388.50 799.09,388.50 799.94,388.50 800.79,388.50 801.64,388.50 802.49,388.50 803.34,388.50 804.19,388.50 805.04,388.50 805.89,388.50 806.74,388.50 807.60,388.50 808.45,388.50 809.30,388.50 810.15,388.50 811.00,388.50 811.85,388.50 812.70,388.50 813.55,388.50 814.40,388.50 815.25,388.50 816.10,388.50 816.96,388.50 817.81,388.50 818.66,388.50 819.51,388.50 820.36,388.50 821.21,388.50 822.06,388.50 822.91,388.50 823.76,388.50 824.61,388.50 825.46,388.50 826.32,388.50 827.17,388.50 828.02,388.50 828.87,388.50 829.72,388.50 830.57,388.50 831.42,388.50 832.27,388.50 833.12,388.50 833.97,388.50 834.83,388.50 835.68,388.50 836.53,388.50 837.38,388.50 838.23,388.50 839.08,388.50 839.93,388.50 840.78,388.50 841.63,388.50 842.48,388.50 843.33,388.50 844.19,388.50 845.04,388.50 845.89,388.50 846.74,388.50 847.59,388.50 848.44,388.50 849.29,388.50 850.14,388.50 850.99,388.50 851.84,388.50 852.69,388.50 853.55,388.50 854.40,388.50 855.25,388.50 856.10,388.50 856.95,388.50 857.80,388.50 858.65,388.50 859.50,388.50 860.35,388.50 861.20,388.50 862.06,388.50 862.91,388.50 863.76,388.50 864.61,388.50 865.46,388.50 866.31,388.50 867.16,388.50 868.01,388.50 868.86,388.50 869.71,388.50 870.56,388.50 871.42,388.50 872.27,388.50 873.12,388.50 873.97,388.50 874.82,388.50 875.67,388.50 876.52,388.50 877.37,388.50 878.22,388.50 879.07,388.50 879.92,388.50 880.78,388.50 881.63,388.50 882.48,388.50 883.33,388.50 884.18,388.50 885.03,388.50 885.88,388.50 886.73,388.50 887.58,388.50 888.43,388.50 889.29,388.50 890.14,388.50 890.99,388.50 891.84,388.50 892.69,388.50 893.54,388.50 894.39,388.50 895.24,388.50 896.09,388.50 896.94,388.50 897.79,388.50 898.65,388.50 899.50,388.50 900.35,388.50 901.20,388.50 902.05,388.50 902.90,388.50 903.75,388.50 904.60,388.50 905.45,388.50 906.30,388.50 907.15,388.50 908.01,388.50 908.86,388.50 909.71,388.50 910.56,388.50 911.41,388.50 912.26,388.50 913.11,388.50 913.96,388.50 914.81,388.50 915.66,388.50 916.52,388.50 917.37,388.50 918.22,388.50 919.07,388.50 919.92,388.50 920.77,388.50 921.62,388.50 922.47,388.50 923.32,388.50 924.17,388.50 925.02,388.50 925.88,388.50 926.73,388.50 927.58,388.50 928.43,388.50 929.28,388.50 930.13,388.50 930.98,388.50 931.83,388.50 932.68,388.50 933.53,388.50 934.38,388.50 935.24,388.50 936.09,388.50 936.94,388.50 937.79,388.50 938.64,388.50 939.49,388.50 940.34,388.50 941.19,388.50 942.04,388.50 942.89,388.50 943.75,388.50 944.60,388.50 945.45,388.50 946.30,388.50 947.15,388.50 948.00,388.50"/>
<text x="517.0" y="517" text-anchor="middle" font-size="13">step</text>
<text x="86" y="546" font-size="18" font-weight="700">train/volume_mean</text>
<text x="948" y="546" text-anchor="end" font-size="13">latest step=1014 value=0.7165</text>
<line class="grid" x1="86" y1="566.00" x2="948" y2="566.00"/>
<text x="76" y="570.00" text-anchor="end" font-size="12">0.8491</text>
<line class="grid" x1="86" y1="607.25" x2="948" y2="607.25"/>
<text x="76" y="611.25" text-anchor="end" font-size="12">0.6533</text>
<line class="grid" x1="86" y1="648.50" x2="948" y2="648.50"/>
<text x="76" y="652.50" text-anchor="end" font-size="12">0.4574</text>
<line class="grid" x1="86" y1="689.75" x2="948" y2="689.75"/>
<text x="76" y="693.75" text-anchor="end" font-size="12">0.2615</text>
<line class="grid" x1="86" y1="731.00" x2="948" y2="731.00"/>
<text x="76" y="735.00" text-anchor="end" font-size="12">0.06565</text>
<line class="grid" x1="86.00" y1="566" x2="86.00" y2="731"/>
<text x="86.00" y="753" text-anchor="middle" font-size="12">1</text>
<line class="grid" x1="301.50" y1="566" x2="301.50" y2="731"/>
<text x="301.50" y="753" text-anchor="middle" font-size="12">254.2</text>
<line class="grid" x1="517.00" y1="566" x2="517.00" y2="731"/>
<text x="517.00" y="753" text-anchor="middle" font-size="12">507.5</text>
<line class="grid" x1="732.50" y1="566" x2="732.50" y2="731"/>
<text x="732.50" y="753" text-anchor="middle" font-size="12">760.8</text>
<line class="grid" x1="948.00" y1="566" x2="948.00" y2="731"/>
<text x="948.00" y="753" text-anchor="middle" font-size="12">1014</text>
<line class="axis" x1="86" y1="731" x2="948" y2="731"/>
<line class="axis" x1="86" y1="566" x2="86" y2="731"/>
<polyline class="line" stroke="#2ca02c" points="86.00,719.62 86.85,708.30 87.70,676.74 88.55,647.57 89.40,611.49 90.25,579.77 91.11,577.38 91.96,595.85 92.81,602.37 93.66,598.68 94.51,595.61 95.36,589.48 96.21,601.28 97.06,599.64 97.91,594.36 98.76,590.13 99.62,585.29 100.47,585.94 101.32,584.02 102.17,579.03 103.02,578.33 103.87,578.73 104.72,580.88 105.57,588.77 106.42,584.30 107.27,586.68 108.12,586.24 108.98,582.72 109.83,584.66 110.68,586.38 111.53,592.52 112.38,595.21 113.23,595.34 114.08,594.62 114.93,595.45 115.78,595.78 116.63,596.53 117.48,598.98 118.34,601.42 119.19,601.02 120.04,598.94 120.89,595.11 121.74,596.58 122.59,595.14 123.44,594.29 124.29,600.78 125.14,596.93 125.99,597.28 126.85,593.80 127.70,591.65 128.55,589.26 129.40,590.38 130.25,590.31 131.10,593.23 131.95,594.98 132.80,593.75 133.65,590.70 134.50,593.05 135.35,597.66 136.21,596.09 137.06,592.87 137.91,593.27 138.76,588.58 139.61,590.94 140.46,591.00 141.31,596.60 142.16,594.87 143.01,595.65 143.86,591.72 144.71,593.00 145.57,595.48 146.42,590.65 147.27,587.76 148.12,584.25 148.97,585.22 149.82,585.21 150.67,592.00 151.52,594.78 152.37,597.74 153.22,595.28 154.08,599.16 154.93,592.14 155.78,589.69 156.63,587.04 157.48,585.21 158.33,590.87 159.18,591.92 160.03,597.97 160.88,599.33 161.73,598.08 162.58,598.78 163.44,596.00 164.29,591.66 165.14,588.44 165.99,580.84 166.84,581.66 167.69,583.66 168.54,585.86 169.39,590.02 170.24,589.97 171.09,593.76 171.94,595.48 172.80,594.85 173.65,597.32 174.50,591.47 175.35,592.61 176.20,589.81 177.05,588.60 177.90,591.52 178.75,590.47 179.60,595.82 180.45,598.29 181.31,601.81 182.16,603.93 183.01,599.93 183.86,598.66 184.71,592.21 185.56,589.59 186.41,587.14 187.26,587.61 188.11,586.85 188.96,592.15 189.81,595.75 190.67,598.34 191.52,598.56 192.37,594.58 193.22,594.56 194.07,597.23 194.92,599.90 195.77,598.22 196.62,597.23 197.47,595.34 198.32,597.55 199.17,596.72 200.03,594.30 200.88,598.89 201.73,596.21 202.58,598.67 203.43,598.38 204.28,599.22 205.13,596.56 205.98,592.35 206.83,589.03 207.68,587.95 208.54,587.78 209.39,591.49 210.24,591.43 211.09,595.08 211.94,594.06 212.79,593.72 213.64,593.11 214.49,594.10 215.34,589.07 216.19,588.23 217.04,584.32 217.90,581.97 218.75,582.40 219.60,586.80 220.45,585.93 221.30,587.41 222.15,589.90 223.00,590.78 223.85,591.91 224.70,587.78 225.55,588.43 226.40,586.04 227.26,587.18 228.11,586.49 228.96,586.09 229.81,588.86 230.66,588.73 231.51,587.73 232.36,586.38 233.21,588.90 234.06,593.70 234.91,590.85 235.77,589.02 236.62,591.38 237.47,587.36 238.32,587.43 239.17,592.83 240.02,591.13 240.87,592.31 241.72,594.23 242.57,594.64 243.42,592.94 244.27,593.99 245.13,589.56 245.98,589.83 246.83,590.42 247.68,586.63 248.53,587.47 249.38,588.31 250.23,583.19 251.08,584.85 251.93,586.55 252.78,584.95 253.63,585.49 254.49,591.57 255.34,590.26 256.19,592.29 257.04,594.03 257.89,593.36 258.74,588.78 259.59,588.74 260.44,587.79 261.29,586.73 262.14,590.23 263.00,593.25 263.85,589.33 264.70,592.54 265.55,590.14 266.40,589.98 267.25,588.90 268.10,584.11 268.95,584.20 269.80,580.85 270.65,585.05 271.50,584.93 272.36,585.61 273.21,587.00 274.06,589.06 274.91,589.62 275.76,588.21 276.61,587.79 277.46,587.79 278.31,588.49 279.16,583.24 280.01,584.81 280.86,586.80 281.72,585.73 282.57,591.20 283.42,587.77 284.27,586.71 285.12,594.32 285.97,592.83 286.82,595.16 287.67,595.89 288.52,591.87 289.37,599.83 290.23,598.97 291.08,596.81 291.93,598.34 292.78,595.63 293.63,598.03 294.48,596.70 295.33,597.94 296.18,597.57 297.03,595.04 297.88,592.68 298.73,593.13 299.59,592.49 300.44,593.26 301.29,591.23 302.14,593.58 302.99,594.39 303.84,589.35 304.69,590.58 305.54,590.09 306.39,587.92 307.24,584.24 308.09,585.99 308.95,585.98 309.80,585.95 310.65,590.28 311.50,595.21 312.35,592.50 313.20,591.96 314.05,590.51 314.90,585.42 315.75,580.97 316.60,580.21 317.46,584.17 318.31,584.94 319.16,589.07 320.01,588.48 320.86,590.78 321.71,589.09 322.56,590.66 323.41,588.13 324.26,588.82 325.11,586.69 325.96,586.90 326.82,585.37 327.67,585.35 328.52,587.69 329.37,589.73 330.22,593.12 331.07,593.48 331.92,590.44 332.77,592.02 333.62,590.43 334.47,589.02 335.32,586.32 336.18,587.97 337.03,586.23 337.88,585.62 338.73,587.12 339.58,589.81 340.43,589.90 341.28,596.05 342.13,589.50 342.98,590.28 343.83,587.47 344.69,589.11 345.54,586.46 346.39,587.95 347.24,588.82 348.09,590.86 348.94,591.38 349.79,590.40 350.64,591.24 351.49,591.91 352.34,590.59 353.19,592.25 354.05,589.62 354.90,590.56 355.75,588.71 356.60,590.77 357.45,586.42 358.30,584.00 359.15,585.81 360.00,584.87 360.85,588.48 361.70,591.85 362.55,589.89 363.41,592.21 364.26,592.31 365.11,594.30 365.96,594.66 366.81,596.45 367.66,593.11 368.51,593.57 369.36,591.02 370.21,595.43 371.06,594.51 371.92,591.21 372.77,594.49 373.62,593.86 374.47,595.55 375.32,597.03 376.17,597.15 377.02,593.45 377.87,595.84 378.72,591.28 379.57,596.36 380.42,590.08 381.28,589.31 382.13,591.97 382.98,594.07 383.83,590.55 384.68,591.14 385.53,589.32 386.38,587.75 387.23,591.46 388.08,594.57 388.93,594.20 389.78,594.03 390.64,594.51 391.49,596.58 392.34,591.93 393.19,590.89 394.04,589.34 394.89,589.05 395.74,587.40 396.59,588.19 397.44,587.47 398.29,593.07 399.15,592.42 400.00,594.88 400.85,595.21 401.70,597.36 402.55,598.24 403.40,599.21 404.25,597.75 405.10,599.18 405.95,599.33 406.80,595.72 407.65,596.81 408.51,599.40 409.36,598.88 410.21,594.53 411.06,595.49 411.91,592.82 412.76,595.93 413.61,592.00 414.46,592.80 415.31,592.55 416.16,591.41 417.01,592.98 417.87,593.48 418.72,589.90 419.57,589.33 420.42,591.13 421.27,588.10 422.12,592.32 422.97,592.85 423.82,594.06 424.67,593.80 425.52,594.96 426.38,590.20 427.23,590.04 428.08,587.38 428.93,592.35 429.78,592.42 430.63,591.95 431.48,591.40 432.33,592.03 433.18,593.78 434.03,592.93 434.88,593.61 435.74,590.72 436.59,588.43 437.44,587.51 438.29,590.97 439.14,589.96 439.99,590.85 440.84,589.49 441.69,588.62 442.54,590.31 443.39,586.09 444.24,584.88 445.10,583.93 445.95,586.44 446.80,587.27 447.65,590.17 448.50,590.65 449.35,588.27 450.20,590.46 451.05,588.98 451.90,588.40 452.75,586.24 453.61,586.22 454.46,588.77 455.31,587.15 456.16,588.77 457.01,591.85 457.86,591.65 458.71,590.21 459.56,593.54 460.41,591.06 461.26,593.02 462.11,589.91 462.97,594.61 463.82,590.23 464.67,593.93 465.52,591.34 466.37,594.75 467.22,594.17 468.07,594.30 468.92,595.49 469.77,591.08 470.62,589.80 471.47,584.81 472.33,587.21 473.18,586.41 474.03,588.24 474.88,588.75 475.73,591.73 476.58,591.38 477.43,592.14 478.28,593.14 479.13,588.76 479.98,591.15 480.84,589.70 481.69,588.79 482.54,588.48 483.39,589.59 484.24,589.66 485.09,589.46 485.94,592.53 486.79,591.43 487.64,592.60 488.49,590.16 489.34,589.51 490.20,586.67 491.05,584.98 491.90,586.34 492.75,587.45 493.60,588.12 494.45,588.40 495.30,593.49 496.15,591.48 497.00,589.97 497.85,588.67 498.70,590.87 499.56,594.50 500.41,594.97 501.26,592.85 502.11,590.66 502.96,593.37 503.81,593.77 504.66,594.46 505.51,592.12 506.36,587.70 507.21,587.07 508.07,588.14 508.92,584.45 509.77,586.99 510.62,589.54 511.47,588.12 512.32,594.67 513.17,594.08 514.02,595.85 514.87,593.93 515.72,590.68 516.57,587.25 517.43,588.20 518.28,585.06 519.13,585.57 519.98,584.61 520.83,585.82 521.68,587.38 522.53,589.09 523.38,593.76 524.23,592.89 525.08,593.49 525.93,594.45 526.79,596.01 527.64,595.04 528.49,592.68 529.34,590.49 530.19,590.62 531.04,593.66 531.89,589.61 532.74,596.13 533.59,596.11 534.44,599.25 535.30,601.25 536.15,599.25 537.00,600.22 537.85,597.85 538.70,597.25 539.55,598.79 540.40,595.97 541.25,596.44 542.10,598.97 542.95,596.75 543.80,595.05 544.66,593.06 545.51,594.38 546.36,590.63 547.21,591.71 548.06,591.85 548.91,592.02 549.76,591.95 550.61,590.28 551.46,590.77 552.31,590.37 553.16,585.34 554.02,587.28 554.87,590.20 555.72,587.55 556.57,587.26 557.42,589.09 558.27,585.59 559.12,587.12 559.97,586.89 560.82,590.56 561.67,589.95 562.53,590.67 563.38,591.74 564.23,593.42 565.08,597.36 565.93,595.24 566.78,597.81 567.63,594.95 568.48,594.44 569.33,593.37 570.18,587.59 571.03,588.71 571.89,592.22 572.74,591.20 573.59,592.06 574.44,595.98 575.29,593.44 576.14,591.58 576.99,589.79 577.84,590.37 578.69,587.28 579.54,590.57 580.39,590.80 581.25,592.89 582.10,592.35 582.95,591.58 583.80,594.38 584.65,592.88 585.50,594.34 586.35,592.79 587.20,589.76 588.05,588.69 588.90,589.18 589.76,588.33 590.61,591.56 591.46,591.54 592.31,589.07 593.16,591.50 594.01,594.94 594.86,594.38 595.71,593.61 596.56,592.54 597.41,592.69 598.26,592.99 599.12,593.56 599.97,593.35 600.82,592.45 601.67,592.86 602.52,594.22 603.37,594.67 604.22,597.21 605.07,594.58 605.92,594.49 606.77,596.23 607.62,596.02 608.48,595.68 609.33,595.06 610.18,595.60 611.03,599.35 611.88,598.43 612.73,601.93 613.58,597.43 614.43,599.34 615.28,598.83 616.13,600.14 616.99,601.27 617.84,601.85 618.69,598.66 619.54,596.76 620.39,593.57 621.24,596.13 622.09,598.02 622.94,598.49 623.79,597.97 624.64,599.30 625.49,597.59 626.35,596.82 627.20,595.24 628.05,596.49 628.90,598.38 629.75,593.59 630.60,595.21 631.45,598.89 632.30,596.51 633.15,599.33 634.00,602.29 634.85,602.53 635.71,601.49 636.56,600.33 637.41,599.84 638.26,600.46 639.11,600.04 639.96,598.72 640.81,600.56 641.66,602.25 642.51,597.32 643.36,599.54 644.22,597.83 645.07,598.68 645.92,596.61 646.77,597.76 647.62,596.28 648.47,598.63 649.32,598.76 650.17,599.49 651.02,596.05 651.87,596.04 652.72,594.81 653.58,591.65 654.43,594.45 655.28,593.23 656.13,594.53 656.98,596.38 657.83,595.58 658.68,598.83 659.53,595.24 660.38,597.18 661.23,596.03 662.08,594.50 662.94,595.01 663.79,592.19 664.64,596.42 665.49,596.31 666.34,596.24 667.19,596.06 668.04,599.04 668.89,598.12 669.74,595.52 670.59,593.77 671.45,595.27 672.30,594.20 673.15,595.55 674.00,596.49 674.85,595.42 675.70,597.75 676.55,598.51 677.40,595.25 678.25,596.90 679.10,596.07 679.95,592.66 680.81,594.10 681.66,592.32 682.51,591.22 683.36,591.90 684.21,590.66 685.06,594.58 685.91,591.84 686.76,595.80 687.61,597.19 688.46,595.23 689.31,598.63 690.17,594.40 691.02,592.13 691.87,591.82 692.72,589.82 693.57,589.19 694.42,590.65 695.27,591.50 696.12,593.77 696.97,596.21 697.82,594.51 698.68,596.11 699.53,593.45 700.38,593.54 701.23,594.11 702.08,592.67 702.93,592.29 703.78,592.16 704.63,590.84 705.48,592.03 706.33,596.58 707.18,594.25 708.04,595.90 708.89,597.21 709.74,598.01 710.59,597.49 711.44,595.35 712.29,594.68 713.14,596.10 713.99,592.88 714.84,593.05 715.69,593.99 716.54,596.70 717.40,598.00 718.25,595.61 719.10,598.78 719.95,595.53 720.80,597.48 721.65,595.85 722.50,591.52 723.35,592.36 724.20,591.01 725.05,592.35 725.91,592.72 726.76,594.39 727.61,594.10 728.46,597.24 729.31,598.44 730.16,596.94 731.01,595.55 731.86,597.85 732.71,593.27 733.56,593.58 734.41,592.29 735.27,592.76 736.12,593.23 736.97,592.26 737.82,593.14 738.67,592.98 739.52,594.46 740.37,594.86 741.22,592.44 742.07,594.09 742.92,597.28 743.77,596.01 744.63,597.19 745.48,597.76 746.33,597.96 747.18,598.97 748.03,599.67 748.88,598.58 749.73,598.10 750.58,599.14 751.43,600.27 752.28,599.49 753.14,599.83 753.99,598.97 754.84,599.91 755.69,601.69 756.54,601.96 757.39,601.59 758.24,601.16 759.09,604.09 759.94,599.61 760.79,600.94 761.64,598.86 762.50,602.90 763.35,598.74 764.20,598.35 765.05,598.16 765.90,598.60 766.75,598.02 767.60,596.78 768.45,593.66 769.30,594.61 770.15,595.50 771.00,595.25 771.86,596.58 772.71,596.11 773.56,598.86 774.41,600.81 775.26,599.94 776.11,602.74 776.96,602.59 777.81,600.17 778.66,599.84 779.51,600.72 780.37,600.16 781.22,600.11 782.07,600.33 782.92,602.37 783.77,602.16 784.62,601.37 785.47,602.44 786.32,602.52 787.17,601.01 788.02,595.11 788.87,596.80 789.73,593.50 790.58,590.94 791.43,592.74 792.28,591.00 793.13,588.36 793.98,586.54 794.83,587.25 795.68,588.82 796.53,588.02 797.38,589.02 798.23,590.56 799.09,589.72 799.94,591.54 800.79,590.74 801.64,594.21 802.49,595.93 803.34,594.42 804.19,596.58 805.04,596.47 805.89,595.70 806.74,597.49 807.60,599.03 808.45,596.02 809.30,596.88 810.15,596.35 811.00,597.09 811.85,596.65 812.70,596.47 813.55,598.65 814.40,597.41 815.25,597.41 816.10,599.24 816.96,598.28 817.81,600.05 818.66,601.04 819.51,599.68 820.36,600.34 821.21,600.65 822.06,599.70 822.91,598.34 823.76,599.39 824.61,602.38 825.46,603.71 826.32,602.31 827.17,600.08 828.02,599.62 828.87,597.90 829.72,595.33 830.57,595.15 831.42,596.61 832.27,594.13 833.12,596.58 833.97,597.19 834.83,599.91 835.68,601.22 836.53,601.63 837.38,602.77 838.23,602.58 839.08,602.26 839.93,602.74 840.78,599.68 841.63,602.10 842.48,602.87 843.33,599.61 844.19,600.05 845.04,597.63 845.89,599.84 846.74,600.23 847.59,599.75 848.44,599.92 849.29,600.06 850.14,601.02 850.99,598.55 851.84,601.15 852.69,601.48 853.55,597.48 854.40,597.73 855.25,599.35 856.10,599.55 856.95,598.46 857.80,597.66 858.65,599.03 859.50,599.97 860.35,599.49 861.20,599.91 862.06,600.53 862.91,600.36 863.76,601.79 864.61,598.46 865.46,597.90 866.31,596.05 867.16,598.95 868.01,595.79 868.86,597.63 869.71,600.10 870.56,598.23 871.42,603.27 872.27,599.96 873.12,600.41 873.97,599.92 874.82,600.09 875.67,600.05 876.52,600.88 877.37,599.90 878.22,598.22 879.07,597.13 879.92,599.65 880.78,599.42 881.63,601.57 882.48,602.91 883.33,604.36 884.18,604.69 885.03,603.62 885.88,600.78 886.73,601.75 887.58,600.17 888.43,598.81 889.29,601.96 890.14,596.68 890.99,595.86 891.84,596.03 892.69,595.56 893.54,597.06 894.39,598.34 895.24,597.64 896.09,601.66 896.94,618.14 897.79,602.23 898.65,594.18 899.50,599.15 900.35,597.26 901.20,592.23 902.05,590.98 902.90,592.03 903.75,591.94 904.60,589.09 905.45,588.25 906.30,590.24 907.15,588.74 908.01,589.82 908.86,591.55 909.71,596.42 910.56,598.39 911.41,598.27 912.26,601.18 913.11,599.32 913.96,599.12 914.81,598.40 915.66,602.12 916.52,597.74 917.37,596.76 918.22,595.96 919.07,594.68 919.92,596.19 920.77,594.59 921.62,597.61 922.47,598.94 923.32,598.46 924.17,601.38 925.02,600.40 925.88,600.27 926.73,601.43 927.58,602.92 928.43,604.28 929.28,601.41 930.13,604.59 930.98,602.08 931.83,601.20 932.68,600.45 933.53,601.14 934.38,602.59 935.24,601.30 936.09,599.44 936.94,596.32 937.79,599.77 938.64,601.52 939.49,598.51 940.34,596.78 941.19,596.18 942.04,595.82 942.89,599.50 943.75,597.50 944.60,596.68 945.45,594.75 946.30,597.20 947.15,597.24 948.00,593.93"/>
<text x="517.0" y="777" text-anchor="middle" font-size="13">step</text>
</svg>