<svg xmlns="http://www.w3.org/2000/svg" width="980" height="780" viewBox="0 0 980 780">
<rect width="100%" height="100%" fill="#ffffff"/>
<style>text{font-family:Arial,Helvetica,sans-serif;fill:#222}.axis{stroke:#333;stroke-width:1}.grid{stroke:#e5e7eb;stroke-width:1}.line{fill:none;stroke-width:2.2}</style>
<text x="86" y="26" font-size="18" font-weight="700">train/loss</text>
<text x="948" y="26" text-anchor="end" font-size="13">latest step=1104 value=3.046</text>
<line class="grid" x1="86" y1="46.00" x2="948" y2="46.00"/>
<text x="76" y="50.00" text-anchor="end" font-size="12">55.96</text>
<line class="grid" x1="86" y1="87.25" x2="948" y2="87.25"/>
<text x="76" y="91.25" text-anchor="end" font-size="12">41.21</text>
<line class="grid" x1="86" y1="128.50" x2="948" y2="128.50"/>
<text x="76" y="132.50" text-anchor="end" font-size="12">26.45</text>
<line class="grid" x1="86" y1="169.75" x2="948" y2="169.75"/>
<text x="76" y="173.75" text-anchor="end" font-size="12">11.69</text>
<line class="grid" x1="86" y1="211.00" x2="948" y2="211.00"/>
<text x="76" y="215.00" text-anchor="end" font-size="12">-3.065</text>
<line class="grid" x1="86.00" y1="46" x2="86.00" y2="211"/>
<text x="86.00" y="233" text-anchor="middle" font-size="12">1</text>
<line class="grid" x1="301.50" y1="46" x2="301.50" y2="211"/>
<text x="301.50" y="233" text-anchor="middle" font-size="12">276.8</text>
<line class="grid" x1="517.00" y1="46" x2="517.00" y2="211"/>
<text x="517.00" y="233" text-anchor="middle" font-size="12">552.5</text>
<line class="grid" x1="732.50" y1="46" x2="732.50" y2="211"/>
<text x="732.50" y="233" text-anchor="middle" font-size="12">828.2</text>
<line class="grid" x1="948.00" y1="46" x2="948.00" y2="211"/>
<text x="948.00" y="233" text-anchor="middle" font-size="12">1104</text>
<line class="axis" x1="86" y1="211" x2="948" y2="211"/>
<line class="axis" x1="86" y1="46" x2="86" y2="211"/>
<polyline class="line" stroke="#1f77b4" points="86.00,57.38 86.78,122.17 87.56,178.25 88.34,186.40 89.13,190.12 89.91,192.79 90.69,193.22 91.47,196.41 92.25,195.74 93.03,194.28 93.82,193.70 94.60,196.47 95.38,195.53 96.16,195.73 96.94,195.83 97.72,196.40 98.50,196.35 99.29,196.82 100.07,195.54 100.85,196.97 101.63,196.92 102.41,196.25 103.19,197.37 103.97,195.44 104.76,195.38 105.54,195.48 106.32,195.88 107.10,195.26 107.88,194.56 108.66,197.44 109.45,195.16 110.23,194.60 111.01,196.00 111.79,197.38 112.57,196.14 113.35,196.62 114.13,196.61 114.92,196.63 115.70,196.56 116.48,197.16 117.26,195.61 118.04,196.54 118.82,195.70 119.60,198.23 120.39,196.73 121.17,196.07 121.95,197.11 122.73,196.97 123.51,197.60 124.29,195.88 125.08,197.34 125.86,196.58 126.64,196.50 127.42,196.09 128.20,195.65 128.98,194.32 129.76,197.26 130.55,197.69 131.33,196.74 132.11,196.68 132.89,195.73 133.67,198.20 134.45,196.59 135.23,197.03 136.02,195.38 136.80,196.74 137.58,196.46 138.36,196.39 139.14,197.84 139.92,197.50 140.71,193.43 141.49,197.29 142.27,195.81 143.05,195.33 143.83,195.49 144.61,196.67 145.39,195.02 146.18,196.11 146.96,196.36 147.74,196.65 148.52,198.30 149.30,196.23 150.08,195.81 150.86,196.61 151.65,196.56 152.43,195.84 153.21,198.96 153.99,197.61 154.77,197.74 155.55,196.95 156.34,195.53 157.12,196.63 157.90,197.16 158.68,196.62 159.46,196.43 160.24,195.87 161.02,195.38 161.81,196.16 162.59,195.29 163.37,195.78 164.15,197.06 164.93,196.69 165.71,197.65 166.50,198.09 167.28,194.79 168.06,195.90 168.84,196.10 169.62,197.26 170.40,195.93 171.18,196.80 171.97,197.53 172.75,197.63 173.53,196.59 174.31,197.59 175.09,195.19 175.87,196.12 176.65,196.16 177.44,195.20 178.22,196.67 179.00,196.62 179.78,196.85 180.56,196.12 181.34,197.40 182.13,197.32 182.91,197.08 183.69,197.32 184.47,197.76 185.25,197.83 186.03,194.98 186.81,196.54 187.60,197.30 188.38,197.52 189.16,196.82 189.94,195.35 190.72,197.53 191.50,197.55 192.28,196.60 193.07,196.14 193.85,197.07 194.63,197.58 195.41,195.62 196.19,196.34 196.97,197.14 197.76,198.43 198.54,195.51 199.32,196.81 200.10,197.99 200.88,196.43 201.66,194.17 202.44,197.14 203.23,196.59 204.01,197.11 204.79,198.12 205.57,195.27 206.35,196.93 207.13,196.87 207.91,197.05 208.70,195.62 209.48,196.19 210.26,197.09 211.04,197.30 211.82,196.87 212.60,195.85 213.39,198.15 214.17,195.63 214.95,198.10 215.73,196.70 216.51,195.83 217.29,198.09 218.07,195.45 218.86,195.24 219.64,196.60 220.42,195.57 221.20,197.42 221.98,194.23 222.76,198.19 223.54,198.44 224.33,195.89 225.11,197.57 225.89,197.51 226.67,197.22 227.45,199.03 228.23,197.56 229.02,198.03 229.80,197.80 230.58,196.21 231.36,196.90 232.14,197.90 232.92,195.79 233.70,197.42 234.49,196.64 235.27,198.16 236.05,195.87 236.83,197.24 237.61,197.74 238.39,197.28 239.17,197.45 239.96,196.46 240.74,196.73 241.52,197.12 242.30,197.85 243.08,195.53 243.86,196.49 244.65,196.91 245.43,196.06 246.21,196.53 246.99,197.75 247.77,195.77 248.55,198.11 249.33,198.53 250.12,198.04 250.90,198.26 251.68,196.09 252.46,196.44 253.24,197.17 254.02,198.43 254.81,196.26 255.59,197.62 256.37,197.88 257.15,197.28 257.93,197.00 258.71,197.52 259.49,196.95 260.28,196.85 261.06,198.20 261.84,197.09 262.62,196.51 263.40,197.84 264.18,197.60 264.96,197.32 265.75,197.83 266.53,197.39 267.31,197.16 268.09,196.76 268.87,197.39 269.65,196.67 270.44,196.76 271.22,196.27 272.00,198.32 272.78,196.98 273.56,197.02 274.34,195.71 275.12,196.76 275.91,196.75 276.69,197.28 277.47,197.46 278.25,195.66 279.03,195.89 279.81,196.04 280.59,196.41 281.38,196.81 282.16,197.51 282.94,198.02 283.72,197.86 284.50,196.21 285.28,196.33 286.07,198.63 286.85,197.44 287.63,194.58 288.41,197.29 289.19,196.36 289.97,197.53 290.75,198.05 291.54,197.40 292.32,196.55 293.10,196.34 293.88,196.43 294.66,195.97 295.44,196.26 296.22,198.06 297.01,196.98 297.79,195.85 298.57,196.06 299.35,197.38 300.13,194.96 300.91,198.15 301.70,197.09 302.48,196.71 303.26,196.20 304.04,197.28 304.82,198.60 305.60,196.44 306.38,196.86 307.17,195.95 307.95,195.77 308.73,196.44 309.51,196.45 310.29,196.38 311.07,198.14 311.85,197.62 312.64,197.96 313.42,196.26 314.20,197.31 314.98,197.33 315.76,196.09 316.54,197.90 317.33,198.36 318.11,197.20 318.89,197.11 319.67,197.00 320.45,197.28 321.23,195.60 322.01,197.41 322.80,196.81 323.58,195.35 324.36,196.93 325.14,197.57 325.92,196.48 326.70,197.02 327.49,196.49 328.27,195.92 329.05,196.97 329.83,195.64 330.61,197.49 331.39,197.59 332.17,198.29 332.96,197.35 333.74,196.83 334.52,196.70 335.30,197.94 336.08,197.80 336.86,196.81 337.64,196.92 338.43,197.59 339.21,196.70 339.99,197.86 340.77,197.80 341.55,196.77 342.33,198.49 343.12,197.67 343.90,196.32 344.68,196.42 345.46,196.24 346.24,196.79 347.02,197.35 347.80,197.51 348.59,197.36 349.37,196.56 350.15,196.85 350.93,196.68 351.71,194.98 352.49,197.39 353.27,197.93 354.06,196.48 354.84,197.69 355.62,196.58 356.40,197.22 357.18,196.56 357.96,197.98 358.75,195.61 359.53,197.46 360.31,196.60 361.09,197.44 361.87,197.84 362.65,197.05 363.43,195.47 364.22,196.00 365.00,197.76 365.78,197.36 366.56,197.07 367.34,197.49 368.12,197.05 368.90,197.20 369.69,197.60 370.47,197.06 371.25,197.47 372.03,198.27 372.81,197.27 373.59,196.69 374.38,197.43 375.16,198.31 375.94,197.95 376.72,198.42 377.50,197.55 378.28,197.29 379.06,197.15 379.85,195.93 380.63,197.43 381.41,196.32 382.19,196.94 382.97,195.70 383.75,197.59 384.53,198.12 385.32,197.21 386.10,197.42 386.88,198.70 387.66,196.30 388.44,195.78 389.22,197.59 390.01,198.12 390.79,196.88 391.57,197.17 392.35,196.46 393.13,196.34 393.91,198.12 394.69,196.23 395.48,197.46 396.26,197.20 397.04,196.11 397.82,196.32 398.60,197.90 399.38,196.29 400.17,197.83 400.95,197.94 401.73,196.91 402.51,198.48 403.29,196.83 404.07,198.66 404.85,195.77 405.64,196.25 406.42,192.43 407.20,197.43 407.98,197.24 408.76,197.87 409.54,197.65 410.32,196.62 411.11,197.21 411.89,196.40 412.67,195.84 413.45,197.50 414.23,196.91 415.01,195.86 415.80,198.29 416.58,197.35 417.36,195.81 418.14,196.02 418.92,195.28 419.70,197.16 420.48,197.99 421.27,196.79 422.05,196.97 422.83,196.53 423.61,198.31 424.39,195.96 425.17,196.49 425.95,196.30 426.74,196.05 427.52,196.59 428.30,196.20 429.08,195.38 429.86,198.52 430.64,196.84 431.43,197.20 432.21,198.45 432.99,197.21 433.77,197.50 434.55,197.76 435.33,197.21 436.11,197.90 436.90,196.85 437.68,195.95 438.46,196.49 439.24,197.14 440.02,197.71 440.80,196.54 441.58,196.28 442.37,197.78 443.15,197.18 443.93,198.16 444.71,196.64 445.49,197.78 446.27,197.78 447.06,196.80 447.84,196.67 448.62,195.98 449.40,196.69 450.18,197.88 450.96,198.35 451.74,197.78 452.53,196.85 453.31,197.32 454.09,198.21 454.87,196.17 455.65,196.35 456.43,197.26 457.21,197.96 458.00,198.51 458.78,197.21 459.56,198.31 460.34,196.59 461.12,197.55 461.90,197.74 462.69,197.66 463.47,197.41 464.25,198.34 465.03,197.45 465.81,195.31 466.59,196.65 467.37,197.60 468.16,199.19 468.94,196.79 469.72,196.46 470.50,197.34 471.28,198.74 472.06,197.44 472.84,196.98 473.63,197.14 474.41,198.90 475.19,197.40 475.97,198.38 476.75,196.99 477.53,197.50 478.32,197.24 479.10,197.47 479.88,194.47 480.66,198.50 481.44,198.21 482.22,197.43 483.00,197.09 483.79,197.73 484.57,195.75 485.35,196.08 486.13,197.99 486.91,197.90 487.69,198.52 488.48,197.53 489.26,197.02 490.04,195.92 490.82,196.54 491.60,198.59 492.38,197.36 493.16,198.23 493.95,196.79 494.73,197.33 495.51,197.15 496.29,195.69 497.07,196.67 497.85,197.24 498.63,197.02 499.42,196.91 500.20,197.76 500.98,197.25 501.76,197.25 502.54,197.17 503.32,197.14 504.11,197.07 504.89,196.66 505.67,197.52 506.45,197.40 507.23,198.41 508.01,196.67 508.79,197.12 509.58,197.37 510.36,197.43 511.14,196.91 511.92,195.33 512.70,197.04 513.48,197.20 514.26,195.92 515.05,196.46 515.83,197.66 516.61,195.61 517.39,196.98 518.17,195.99 518.95,196.90 519.74,196.19 520.52,198.04 521.30,198.36 522.08,197.12 522.86,198.12 523.64,195.21 524.42,198.00 525.21,198.03 525.99,198.27 526.77,197.31 527.55,197.40 528.33,196.98 529.11,197.80 529.89,195.66 530.68,197.68 531.46,198.52 532.24,198.51 533.02,195.63 533.80,197.78 534.58,195.23 535.37,196.95 536.15,196.80 536.93,195.68 537.71,196.97 538.49,197.51 539.27,198.08 540.05,198.18 540.84,197.44 541.62,196.47 542.40,196.55 543.18,197.30 543.96,197.83 544.74,196.02 545.52,197.04 546.31,196.75 547.09,197.51 547.87,195.95 548.65,196.22 549.43,195.62 550.21,197.35 551.00,197.65 551.78,197.92 552.56,193.95 553.34,196.93 554.12,197.15 554.90,198.18 555.68,196.30 556.47,196.03 557.25,196.28 558.03,197.38 558.81,198.14 559.59,197.63 560.37,197.76 561.16,197.63 561.94,195.67 562.72,197.12 563.50,197.86 564.28,198.82 565.06,197.50 565.84,196.71 566.63,197.67 567.41,196.82 568.19,197.46 568.97,197.39 569.75,197.89 570.53,197.72 571.31,197.50 572.10,196.82 572.88,196.92 573.66,195.79 574.44,196.84 575.22,196.42 576.00,196.52 576.79,198.55 577.57,197.04 578.35,196.45 579.13,197.91 579.91,197.67 580.69,198.13 581.47,196.02 582.26,197.22 583.04,197.91 583.82,196.34 584.60,196.25 585.38,198.06 586.16,197.98 586.94,198.35 587.73,197.39 588.51,196.63 589.29,198.10 590.07,195.89 590.85,196.65 591.63,196.81 592.42,197.10 593.20,197.92 593.98,197.98 594.76,197.79 595.54,195.82 596.32,197.61 597.10,197.57 597.89,196.70 598.67,196.73 599.45,196.90 600.23,196.13 601.01,196.89 601.79,198.28 602.57,197.07 603.36,198.25 604.14,196.91 604.92,196.07 605.70,197.73 606.48,196.37 607.26,197.03 608.05,197.47 608.83,197.94 609.61,197.48 610.39,197.55 611.17,198.25 611.95,197.60 612.73,196.78 613.52,196.08 614.30,196.20 615.08,197.73 615.86,197.77 616.64,197.99 617.42,196.66 618.20,196.40 618.99,197.84 619.77,196.98 620.55,197.32 621.33,196.70 622.11,197.10 622.89,196.76 623.68,196.37 624.46,198.29 625.24,197.55 626.02,195.08 626.80,197.80 627.58,196.69 628.36,197.03 629.15,197.47 629.93,198.68 630.71,197.42 631.49,197.98 632.27,196.43 633.05,196.61 633.83,197.02 634.62,197.55 635.40,197.17 636.18,196.54 636.96,197.88 637.74,196.43 638.52,197.97 639.31,199.03 640.09,196.07 640.87,196.98 641.65,199.31 642.43,197.64 643.21,196.69 643.99,198.44 644.78,197.11 645.56,196.99 646.34,198.19 647.12,196.78 647.90,196.79 648.68,198.14 649.47,197.71 650.25,197.70 651.03,198.22 651.81,197.69 652.59,198.41 653.37,197.99 654.15,198.08 654.94,198.08 655.72,197.93 656.50,197.45 657.28,197.66 658.06,197.63 658.84,198.19 659.62,194.67 660.41,197.18 661.19,197.04 661.97,196.42 662.75,196.07 663.53,197.35 664.31,197.59 665.10,197.05 665.88,197.04 666.66,196.36 667.44,196.02 668.22,197.65 669.00,197.14 669.78,198.63 670.57,196.89 671.35,196.68 672.13,197.98 672.91,197.48 673.69,196.26 674.47,197.80 675.25,198.79 676.04,197.28 676.82,197.93 677.60,197.60 678.38,197.54 679.16,197.01 679.94,197.36 680.73,196.24 681.51,197.73 682.29,198.31 683.07,198.58 683.85,198.27 684.63,196.91 685.41,198.31 686.20,196.70 686.98,197.63 687.76,197.26 688.54,197.77 689.32,196.76 690.10,196.74 690.88,196.30 691.67,198.08 692.45,198.14 693.23,198.88 694.01,198.11 694.79,197.06 695.57,197.63 696.36,196.77 697.14,197.22 697.92,198.08 698.70,198.08 699.48,197.44 700.26,198.25 701.04,197.42 701.83,197.81 702.61,198.72 703.39,197.22 704.17,195.92 704.95,197.69 705.73,196.61 706.51,196.34 707.30,196.90 708.08,195.89 708.86,196.93 709.64,197.26 710.42,196.24 711.20,197.58 711.99,196.35 712.77,199.15 713.55,197.01 714.33,198.31 715.11,197.57 715.89,197.17 716.67,197.05 717.46,197.95 718.24,198.04 719.02,196.20 719.80,198.07 720.58,196.92 721.36,197.63 722.15,197.81 722.93,196.18 723.71,197.23 724.49,197.52 725.27,197.54 726.05,198.34 726.83,199.22 727.62,195.99 728.40,198.28 729.18,196.80 729.96,197.99 730.74,198.18 731.52,198.56 732.30,197.17 733.09,196.70 733.87,197.84 734.65,196.23 735.43,198.85 736.21,197.99 736.99,198.74 737.78,198.81 738.56,197.11 739.34,196.25 740.12,198.41 740.90,196.64 741.68,197.50 742.46,197.29 743.25,196.14 744.03,198.02 744.81,198.24 745.59,196.54 746.37,197.44 747.15,197.59 747.93,197.56 748.72,197.09 749.50,196.44 750.28,198.76 751.06,198.25 751.84,196.47 752.62,199.12 753.41,196.89 754.19,197.79 754.97,198.27 755.75,198.35 756.53,198.23 757.31,197.46 758.09,195.90 758.88,196.67 759.66,196.48 760.44,196.61 761.22,198.53 762.00,198.00 762.78,199.55 763.56,198.05 764.35,198.48 765.13,196.95 765.91,197.04 766.69,197.62 767.47,197.93 768.25,197.84 769.04,197.90 769.82,196.49 770.60,197.45 771.38,197.98 772.16,197.34 772.94,197.18 773.72,196.36 774.51,199.02 775.29,198.21 776.07,198.01 776.85,197.90 777.63,197.39 778.41,198.32 779.19,198.21 779.98,197.39 780.76,196.78 781.54,198.11 782.32,195.99 783.10,197.89 783.88,196.32 784.67,196.42 785.45,197.51 786.23,197.09 787.01,197.34 787.79,198.20 788.57,197.60 789.35,197.88 790.14,198.73 790.92,196.22 791.70,197.33 792.48,196.57 793.26,197.02 794.04,198.01 794.83,197.68 795.61,197.28 796.39,197.04 797.17,197.30 797.95,197.39 798.73,197.72 799.51,196.96 800.30,195.99 801.08,197.87 801.86,197.62 802.64,196.98 803.42,197.57 804.20,197.23 804.98,197.43 805.77,195.86 806.55,196.08 807.33,197.19 808.11,197.07 808.89,197.55 809.67,197.51 810.46,197.94 811.24,197.10 812.02,196.07 812.80,198.35 813.58,198.15 814.36,197.79 815.14,197.61 815.93,197.09 816.71,197.73 817.49,196.74 818.27,196.70 819.05,196.28 819.83,196.51 820.61,199.62 821.40,198.39 822.18,196.69 822.96,197.25 823.74,195.29 824.52,197.89 825.30,196.65 826.09,197.73 826.87,197.60 827.65,198.90 828.43,198.12 829.21,199.18 829.99,196.88 830.77,196.69 831.56,196.38 832.34,197.07 833.12,196.64 833.90,196.28 834.68,196.87 835.46,196.70 836.24,196.73 837.03,198.02 837.81,196.74 838.59,197.56 839.37,196.60 840.15,197.15 840.93,197.50 841.72,198.75 842.50,196.93 843.28,197.60 844.06,196.99 844.84,197.41 845.62,197.74 846.40,198.79 847.19,197.57 847.97,197.18 848.75,197.75 849.53,198.46 850.31,197.70 851.09,197.62 851.87,197.45 852.66,197.40 853.44,197.96 854.22,196.27 855.00,197.60 855.78,197.21 856.56,198.77 857.35,198.01 858.13,196.60 858.91,198.04 859.69,196.49 860.47,195.78 861.25,196.29 862.03,197.40 862.82,196.26 863.60,198.27 864.38,197.72 865.16,197.84 865.94,197.09 866.72,198.73 867.50,198.16 868.29,196.64 869.07,196.36 869.85,197.85 870.63,196.20 871.41,196.26 872.19,197.98 872.98,196.80 873.76,197.25 874.54,196.16 875.32,197.71 876.10,197.92 876.88,196.18 877.66,198.08 878.45,196.90 879.23,195.26 880.01,198.05 880.79,199.29 881.57,197.44 882.35,197.35 883.14,197.39 883.92,197.65 884.70,197.30 885.48,198.16 886.26,196.95 887.04,196.08 887.82,196.95 888.61,195.28 889.39,196.59 890.17,197.78 890.95,197.12 891.73,196.26 892.51,196.66 893.29,197.82 894.08,197.56 894.86,197.58 895.64,196.67 896.42,198.29 897.20,196.26 897.98,198.47 898.77,196.26 899.55,196.96 900.33,196.58 901.11,197.90 901.89,195.95 902.67,198.87 903.45,189.57 904.24,190.11 905.02,190.14 905.80,190.29 906.58,190.02 907.36,190.88 908.14,191.38 908.92,192.28 909.71,194.40 910.49,195.16 911.27,195.15 912.05,194.02 912.83,195.40 913.61,192.95 914.40,194.04 915.18,194.75 915.96,195.39 916.74,193.26 917.52,195.08 918.30,196.01 919.08,195.34 919.87,194.28 920.65,194.00 921.43,196.68 922.21,195.38 922.99,194.11 923.77,193.94 924.55,195.66 925.34,194.20 926.12,193.97 926.90,193.12 927.68,197.00 928.46,195.92 929.24,195.22 930.03,195.23 930.81,195.25 931.59,194.04 932.37,194.55 933.15,195.39 933.93,196.33 934.71,195.36 935.50,194.48 936.28,195.04 937.06,194.34 937.84,195.08 938.62,194.59 939.40,194.52 940.18,193.95 940.97,194.73 941.75,193.96 942.53,195.52 943.31,194.14 944.09,194.43 944.87,195.19 945.66,195.41 946.44,195.36 947.22,194.74 948.00,193.92"/>
<text x="517.0" y="257" text-anchor="middle" font-size="13">step</text>
<text x="86" y="286" font-size="18" font-weight="700">train/lr</text>
<text x="948" y="286" text-anchor="end" font-size="13">latest step=1104 value=2.000e-04</text>
<line class="grid" x1="86" y1="306.00" x2="948" y2="306.00"/>
<text x="76" y="310.00" text-anchor="end" font-size="12">2.100e-04</text>
<line class="grid" x1="86" y1="347.25" x2="948" y2="347.25"/>
<text x="76" y="351.25" text-anchor="end" font-size="12">2.050e-04</text>
<line class="grid" x1="86" y1="388.50" x2="948" y2="388.50"/>
<text x="76" y="392.50" text-anchor="end" font-size="12">2.000e-04</text>
<line class="grid" x1="86" y1="429.75" x2="948" y2="429.75"/>
<text x="76" y="433.75" text-anchor="end" font-size="12">1.950e-04</text>
<line class="grid" x1="86" y1="471.00" x2="948" y2="471.00"/>
<text x="76" y="475.00" text-anchor="end" font-size="12">1.900e-04</text>
<line class="grid" x1="86.00" y1="306" x2="86.00" y2="471"/>
<text x="86.00" y="493" text-anchor="middle" font-size="12">1</text>
<line class="grid" x1="301.50" y1="306" x2="301.50" y2="471"/>
<text x="301.50" y="493" text-anchor="middle" font-size="12">276.8</text>
<line class="grid" x1="517.00" y1="306" x2="517.00" y2="471"/>
<text x="517.00" y="493" text-anchor="middle" font-size="12">552.5</text>
<line class="grid" x1="732.50" y1="306" x2="732.50" y2="471"/>
<text x="732.50" y="493" text-anchor="middle" font-size="12">828.2</text>
<line class="grid" x1="948.00" y1="306" x2="948.00" y2="471"/>
<text x="948.00" y="493" text-anchor="middle" font-size="12">1104</text>
<line class="axis" x1="86" y1="471" x2="948" y2="471"/>
<line class="axis" x1="86" y1="306" x2="86" y2="471"/>
<polyline class="line" stroke="#d62728" points="86.00,388.50 86.78,388.50 87.56,388.50 88.34,388.50 89.13,388.50 89.91,388.50 90.69,388.50 91.47,388.50 92.25,388.50 93.03,388.50 93.82,388.50 94.60,388.50 95.38,388.50 96.16,388.50 96.94,388.50 97.72,388.50 98.50,388.50 99.29,388.50 100.07,388.50 100.85,388.50 101.63,388.50 102.41,388.50 103.19,388.50 103.97,388.50 104.76,388.50 105.54,388.50 106.32,388.50 107.10,388.50 107.88,388.50 108.66,388.50 109.45,388.50 110.23,388.50 111.01,388.50 111.79,388.50 112.57,388.50 113.35,388.50 114.13,388.50 114.92,388.50 115.70,388.50 116.48,388.50 117.26,388.50 118.04,388.50 118.82,388.50 119.60,388.50 120.39,388.50 121.17,388.50 121.95,388.50 122.73,388.50 123.51,388.50 124.29,388.50 125.08,388.50 125.86,388.50 126.64,388.50 127.42,388.50 128.20,388.50 128.98,388.50 129.76,388.50 130.55,388.50 131.33,388.50 132.11,388.50 132.89,388.50 133.67,388.50 134.45,388.50 135.23,388.50 136.02,388.50 136.80,388.50 137.58,388.50 138.36,388.50 139.14,388.50 139.92,388.50 140.71,388.50 141.49,388.50 142.27,388.50 143.05,388.50 143.83,388.50 144.61,388.50 145.39,388.50 146.18,388.50 146.96,388.50 147.74,388.50 148.52,388.50 149.30,388.50 150.08,388.50 150.86,388.50 151.65,388.50 152.43,388.50 153.21,388.50 153.99,388.50 154.77,388.50 155.55,388.50 156.34,388.50 157.12,388.50 157.90,388.50 158.68,388.50 159.46,388.50 160.24,388.50 161.02,388.50 161.81,388.50 162.59,388.50 163.37,388.50 164.15,388.50 164.93,388.50 165.71,388.50 166.50,388.50 167.28,388.50 168.06,388.50 168.84,388.50 169.62,388.50 170.40,388.50 171.18,388.50 171.97,388.50 172.75,388.50 173.53,388.50 174.31,388.50 175.09,388.50 175.87,388.50 176.65,388.50 177.44,388.50 178.22,388.50 179.00,388.50 179.78,388.50 180.56,388.50 181.34,388.50 182.13,388.50 182.91,388.50 183.69,388.50 184.47,388.50 185.25,388.50 186.03,388.50 186.81,388.50 187.60,388.50 188.38,388.50 189.16,388.50 189.94,388.50 190.72,388.50 191.50,388.50 192.28,388.50 193.07,388.50 193.85,388.50 194.63,388.50 195.41,388.50 196.19,388.50 196.97,388.50 197.76,388.50 198.54,388.50 199.32,388.50 200.10,388.50 200.88,388.50 201.66,388.50 202.44,388.50 203.23,388.50 204.01,388.50 204.79,388.50 205.57,388.50 206.35,388.50 207.13,388.50 207.91,388.50 208.70,388.50 209.48,388.50 210.26,388.50 211.04,388.50 211.82,388.50 212.60,388.50 213.39,388.50 214.17,388.50 214.95,388.50 215.73,388.50 216.51,388.50 217.29,388.50 218.07,388.50 218.86,388.50 219.64,388.50 220.42,388.50 221.20,388.50 221.98,388.50 222.76,388.50 223.54,388.50 224.33,388.50 225.11,388.50 225.89,388.50 226.67,388.50 227.45,388.50 228.23,388.50 229.02,388.50 229.80,388.50 230.58,388.50 231.36,388.50 232.14,388.50 232.92,388.50 233.70,388.50 234.49,388.50 235.27,388.50 236.05,388.50 236.83,388.50 237.61,388.50 238.39,388.50 239.17,388.50 239.96,388.50 240.74,388.50 241.52,388.50 242.30,388.50 243.08,388.50 243.86,388.50 244.65,388.50 245.43,388.50 246.21,388.50 246.99,388.50 247.77,388.50 248.55,388.50 249.33,388.50 250.12,388.50 250.90,388.50 251.68,388.50 252.46,388.50 253.24,388.50 254.02,388.50 254.81,388.50 255.59,388.50 256.37,388.50 257.15,388.50 257.93,388.50 258.71,388.50 259.49,388.50 260.28,388.50 261.06,388.50 261.84,388.50 262.62,388.50 263.40,388.50 264.18,388.50 264.96,388.50 265.75,388.50 266.53,388.50 267.31,388.50 268.09,388.50 268.87,388.50 269.65,388.50 270.44,388.50 271.22,388.50 272.00,388.50 272.78,388.50 273.56,388.50 274.34,388.50 275.12,388.50 275.91,388.50 276.69,388.50 277.47,388.50 278.25,388.50 279.03,388.50 279.81,388.50 280.59,388.50 281.38,388.50 282.16,388.50 282.94,388.50 283.72,388.50 284.50,388.50 285.28,388.50 286.07,388.50 286.85,388.50 287.63,388.50 288.41,388.50 289.19,388.50 289.97,388.50 290.75,388.50 291.54,388.50 292.32,388.50 293.10,388.50 293.88,388.50 294.66,388.50 295.44,388.50 296.22,388.50 297.01,388.50 297.79,388.50 298.57,388.50 299.35,388.50 300.13,388.50 300.91,388.50 301.70,388.50 302.48,388.50 303.26,388.50 304.04,388.50 304.82,388.50 305.60,388.50 306.38,388.50 307.17,388.50 307.95,388.50 308.73,388.50 309.51,388.50 310.29,388.50 311.07,388.50 311.85,388.50 312.64,388.50 313.42,388.50 314.20,388.50 314.98,388.50 315.76,388.50 316.54,388.50 317.33,388.50 318.11,388.50 318.89,388.50 319.67,388.50 320.45,388.50 321.23,388.50 322.01,388.50 322.80,388.50 323.58,388.50 324.36,388.50 325.14,388.50 325.92,388.50 326.70,388.50 327.49,388.50 328.27,388.50 329.05,388.50 329.83,388.50 330.61,388.50 331.39,388.50 332.17,388.50 332.96,388.50 333.74,388.50 334.52,388.50 335.30,388.50 336.08,388.50 336.86,388.50 337.64,388.50 338.43,388.50 339.21,388.50 339.99,388.50 340.77,388.50 341.55,388.50 342.33,388.50 343.12,388.50 343.90,388.50 344.68,388.50 345.46,388.50 346.24,388.50 347.02,388.50 347.80,388.50 348.59,388.50 349.37,388.50 350.15,388.50 350.93,388.50 351.71,388.50 352.49,388.50 353.27,388.50 354.06,388.50 354.84,388.50 355.62,388.50 356.40,388.50 357.18,388.50 357.96,388.50 358.75,388.50 359.53,388.50 360.31,388.50 361.09,388.50 361.87,388.50 362.65,388.50 363.43,388.50 364.22,388.50 365.00,388.50 365.78,388.50 366.56,388.50 367.34,388.50 368.12,388.50 368.90,388.50 369.69,388.50 370.47,388.50 371.25,388.50 372.03,388.50 372.81,388.50 373.59,388.50 374.38,388.50 375.16,388.50 375.94,388.50 376.72,388.50 377.50,388.50 378.28,388.50 379.06,388.50 379.85,388.50 380.63,388.50 381.41,388.50 382.19,388.50 382.97,388.50 383.75,388.50 384.53,388.50 385.32,388.50 386.10,388.50 386.88,388.50 387.66,388.50 388.44,388.50 389.22,388.50 390.01,388.50 390.79,388.50 391.57,388.50 392.35,388.50 393.13,388.50 393.91,388.50 394.69,388.50 395.48,388.50 396.26,388.50 397.04,388.50 397.82,388.50 398.60,388.50 399.38,388.50 400.17,388.50 400.95,388.50 401.73,388.50 402.51,388.50 403.29,388.50 404.07,388.50 404.85,388.50 405.64,388.50 406.42,388.50 407.20,388.50 407.98,388.50 408.76,388.50 409.54,388.50 410.32,388.50 411.11,388.50 411.89,388.50 412.67,388.50 413.45,388.50 414.23,388.50 415.01,388.50 415.80,388.50 416.58,388.50 417.36,388.50 418.14,388.50 418.92,388.50 419.70,388.50 420.48,388.50 421.27,388.50 422.05,388.50 422.83,388.50 423.61,388.50 424.39,388.50 425.17,388.50 425.95,388.50 426.74,388.50 427.52,388.50 428.30,388.50 429.08,388.50 429.86,388.50 430.64,388.50 431.43,388.50 432.21,388.50 432.99,388.50 433.77,388.50 434.55,388.50 435.33,388.50 436.11,388.50 436.90,388.50 437.68,388.50 438.46,388.50 439.24,388.50 440.02,388.50 440.80,388.50 441.58,388.50 442.37,388.50 443.15,388.50 443.93,388.50 444.71,388.50 445.49,388.50 446.27,388.50 447.06,388.50 447.84,388.50 448.62,388.50 449.40,388.50 450.18,388.50 450.96,388.50 451.74,388.50 452.53,388.50 453.31,388.50 454.09,388.50 454.87,388.50 455.65,388.50 456.43,388.50 457.21,388.50 458.00,388.50 458.78,388.50 459.56,388.50 460.34,388.50 461.12,388.50 461.90,388.50 462.69,388.50 463.47,388.50 464.25,388.50 465.03,388.50 465.81,388.50 466.59,388.50 467.37,388.50 468.16,388.50 468.94,388.50 469.72,388.50 470.50,388.50 471.28,388.50 472.06,388.50 472.84,388.50 473.63,388.50 474.41,388.50 475.19,388.50 475.97,388.50 476.75,388.50 477.53,388.50 478.32,388.50 479.10,388.50 479.88,388.50 480.66,388.50 481.44,388.50 482.22,388.50 483.00,388.50 483.79,388.50 484.57,388.50 485.35,388.50 486.13,388.50 486.91,388.50 487.69,388.50 488.48,388.50 489.26,388.50 490.04,388.50 490.82,388.50 491.60,388.50 492.38,388.50 493.16,388.50 493.95,388.50 494.73,388.50 495.51,388.50 496.29,388.50 497.07,388.50 497.85,388.50 498.63,388.50 499.42,388.50 500.20,388.50 500.98,388.50 501.76,388.50 502.54,388.50 503.32,388.50 504.11,388.50 504.89,388.50 505.67,388.50 506.45,388.50 507.23,388.50 508.01,388.50 508.79,388.50 509.58,388.50 510.36,388.50 511.14,388.50 511.92,388.50 512.70,388.50 513.48,388.50 514.26,388.50 515.05,388.50 515.83,388.50 516.61,388.50 517.39,388.50 518.17,388.50 518.95,388.50 519.74,388.50 520.52,388.50 521.30,388.50 522.08,388.50 522.86,388.50 523.64,388.50 524.42,388.50 525.21,388.50 525.99,388.50 526.77,388.50 527.55,388.50 528.33,388.50 529.11,388.50 529.89,388.50 530.68,388.50 531.46,388.50 532.24,388.50 533.02,388.50 533.80,388.50 534.58,388.50 535.37,388.50 536.15,388.50 536.93,388.50 537.71,388.50 538.49,388.50 539.27,388.50 540.05,388.50 540.84,388.50 541.62,388.50 542.40,388.50 543.18,388.50 543.96,388.50 544.74,388.50 545.52,388.50 546.31,388.50 547.09,388.50 547.87,388.50 548.65,388.50 549.43,388.50 550.21,388.50 551.00,388.50 551.78,388.50 552.56,388.50 553.34,388.50 554.12,388.50 554.90,388.50 555.68,388.50 556.47,388.50 557.25,388.50 558.03,388.50 558.81,388.50 559.59,388.50 560.37,388.50 561.16,388.50 561.94,388.50 562.72,388.50 563.50,388.50 564.28,388.50 565.06,388.50 565.84,388.50 566.63,388.50 567.41,388.50 568.19,388.50 568.97,388.50 569.75,388.50 570.53,388.50 571.31,388.50 572.10,388.50 572.88,388.50 573.66,388.50 574.44,388.50 575.22,388.50 576.00,388.50 576.79,388.50 577.57,388.50 578.35,388.50 579.13,388.50 579.91,388.50 580.69,388.50 581.47,388.50 582.26,388.50 583.04,388.50 583.82,388.50 584.60,388.50 585.38,388.50 586.16,388.50 586.94,388.50 587.73,388.50 588.51,388.50 589.29,388.50 590.07,388.50 590.85,388.50 591.63,388.50 592.42,388.50 593.20,388.50 593.98,388.50 594.76,388.50 595.54,388.50 596.32,388.50 597.10,388.50 597.89,388.50 598.67,388.50 599.45,388.50 600.23,388.50 601.01,388.50 601.79,388.50 602.57,388.50 603.36,388.50 604.14,388.50 604.92,388.50 605.70,388.50 606.48,388.50 607.26,388.50 608.05,388.50 608.83,388.50 609.61,388.50 610.39,388.50 611.17,388.50 611.95,388.50 612.73,388.50 613.52,388.50 614.30,388.50 615.08,388.50 615.86,388.50 616.64,388.50 617.42,388.50 618.20,388.50 618.99,388.50 619.77,388.50 620.55,388.50 621.33,388.50 622.11,388.50 622.89,388.50 623.68,388.50 624.46,388.50 625.24,388.50 626.02,388.50 626.80,388.50 627.58,388.50 628.36,388.50 629.15,388.50 629.93,388.50 630.71,388.50 631.49,388.50 632.27,388.50 633.05,388.50 633.83,388.50 634.62,388.50 635.40,388.50 636.18,388.50 636.96,388.50 637.74,388.50 638.52,388.50 639.31,388.50 640.09,388.50 640.87,388.50 641.65,388.50 642.43,388.50 643.21,388.50 643.99,388.50 644.78,388.50 645.56,388.50 646.34,388.50 647.12,388.50 647.90,388.50 648.68,388.50 649.47,388.50 650.25,388.50 651.03,388.50 651.81,388.50 652.59,388.50 653.37,388.50 654.15,388.50 654.94,388.50 655.72,388.50 656.50,388.50 657.28,388.50 658.06,388.50 658.84,388.50 659.62,388.50 660.41,388.50 661.19,388.50 661.97,388.50 662.75,388.50 663.53,388.50 664.31,388.50 665.10,388.50 665.88,388.50 666.66,388.50 667.44,388.50 668.22,388.50 669.00,388.50 669.78,388.50 670.57,388.50 671.35,388.50 672.13,388.50 672.91,388.50 673.69,388.50 674.47,388.50 675.25,388.50 676.04,388.50 676.82,388.50 677.60,388.50 678.38,388.50 679.16,388.50 679.94,388.50 680.73,388.50 681.51,388.50 682.29,388.50 683.07,388.50 683.85,388.50 684.63,388.50 685.41,388.50 686.20,388.50 686.98,388.50 687.76,388.50 688.54,388.50 689.32,388.50 690.10,388.50 690.88,388.50 691.67,388.50 692.45,388.50 693.23,388.50 694.01,388.50 694.79,388.50 695.57,388.50 696.36,388.50 697.14,388.50 697.92,388.50 698.70,388.50 699.48,388.50 700.26,388.50 701.04,388.50 701.83,388.50 702.61,388.50 703.39,388.50 704.17,388.50 704.95,388.50 705.73,388.50 706.51,388.50 707.30,388.50 708.08,388.50 708.86,388.50 709.64,388.50 710.42,388.50 711.20,388.50 711.99,388.50 712.77,388.50 713.55,388.50 714.33,388.50 715.11,388.50 715.89,388.50 716.67,388.50 717.46,388.50 718.24,388.50 719.02,388.50 719.80,388.50 720.58,388.50 721.36,388.50 722.15,388.50 722.93,388.50 723.71,388.50 724.49,388.50 725.27,388.50 726.05,388.50 726.83,388.50 727.62,388.50 728.40,388.50 729.18,388.50 729.96,388.50 730.74,388.50 731.52,388.50 732.30,388.50 733.09,388.50 733.87,388.50 734.65,388.50 735.43,388.50 736.21,388.50 736.99,388.50 737.78,388.50 738.56,388.50 739.34,388.50 740.12,388.50 740.90,388.50 741.68,388.50 742.46,388.50 743.25,388.50 744.03,388.50 744.81,388.50 745.59,388.50 746.37,388.50 747.15,388.50 747.93,388.50 748.72,388.50 749.50,388.50 750.28,388.50 751.06,388.50 751.84,388.50 752.62,388.50 753.41,388.50 754.19,388.50 754.97,388.50 755.75,388.50 756.53,388.50 757.31,388.50 758.09,388.50 758.88,388.50 759.66,388.50 760.44,388.50 761.22,388.50 762.00,388.50 762.78,388.50 763.56,388.50 764.35,388.50 765.13,388.50 765.91,388.50 766.69,388.50 767.47,388.50 768.25,388.50 769.04,388.50 769.82,388.50 770.60,388.50 771.38,388.50 772.16,388.50 772.94,388.50 773.72,388.50 774.51,388.50 775.29,388.50 776.07,388.50 776.85,388.50 777.63,388.50 778.41,388.50 779.19,388.50 779.98,388.50 780.76,388.50 781.54,388.50 782.32,388.50 783.10,388.50 783.88,388.50 784.67,388.50 785.45,388.50 786.23,388.50 787.01,388.50 787.79,388.50 788.57,388.50 789.35,388.50 790.14,388.50 790.92,388.50 791.70,388.50 792.48,388.50 793.26,388.50 794.04,388.50 794.83,388.50 795.61,388.50 796.39,388.50 797.17,388.50 797.95,388.50 798.73,388.50 799.51,388.50 800.30,388.50 801.08,388.50 801.86,388.50 802.64,388.50 803.42,388.50 804.20,388.50 804.98,388.50 805.77,388.50 806.55,388.50 807.33,388.50 808.11,388.50 808.89,388.50 809.67,388.50 810.46,388.50 811.24,388.50 812.02,388.50 812.80,388.50 813.58,388.50 814.36,388.50 815.14,388.50 815.93,388.50 816.71,388.50 817.49,388.50 818.27,388.50 819.05,388.50 819.83,388.50 820.61,388.50 821.40,388.50 822.18,388.50 822.96,388.50 823.74,388.50 824.52,388.50 825.30,388.50 826.09,388.50 826.87,388.50 827.65,388.50 828.43,388.50 829.21,388.50 829.99,388.50 830.77,388.50 831.56,388.50 832.34,388.50 833.12,388.50 833.90,388.50 834.68,388.50 835.46,388.50 836.24,388.50 837.03,388.50 837.81,388.50 838.59,388.50 839.37,388.50 840.15,388.50 840.93,388.50 841.72,388.50 842.50,388.50 843.28,388.50 844.06,388.50 844.84,388.50 845.62,388.50 846.40,388.50 847.19,388.50 847.97,388.50 848.75,388.50 849.53,388.50 850.31,388.50 851.09,388.50 851.87,388.50 852.66,388.50 853.44,388.50 854.22,388.50 855.00,388.50 855.78,388.50 856.56,388.50 857.35,388.50 858.13,388.50 858.91,388.50 859.69,388.50 860.47,388.50 861.25,388.50 862.03,388.50 862.82,388.50 863.60,388.50 864.38,388.50 865.16,388.50 865.94,388.50 866.72,388.50 867.50,388.50 868.29,388.50 869.07,388.50 869.85,388.50 870.63,388.50 871.41,388.50 872.19,388.50 872.98,388.50 873.76,388.50 874.54,388.50 875.32,388.50 876.10,388.50 876.88,388.50 877.66,388.50 878.45,388.50 879.23,388.50 880.01,388.50 880.79,388.50 881.57,388.50 882.35,388.50 883.14,388.50 883.92,388.50 884.70,388.50 885.48,388.50 886.26,388.50 887.04,388.50 887.82,388.50 888.61,388.50 889.39,388.50 890.17,388.50 890.95,388.50 891.73,388.50 892.51,388.50 893.29,388.50 894.08,388.50 894.86,388.50 895.64,388.50 896.42,388.50 897.20,388.50 897.98,388.50 898.77,388.50 899.55,388.50 900.33,388.50 901.11,388.50 901.89,388.50 902.67,388.50 903.45,388.50 904.24,388.50 905.02,388.50 905.80,388.50 906.58,388.50 907.36,388.50 908.14,388.50 908.92,388.50 909.71,388.50 910.49,388.50 911.27,388.50 912.05,388.50 912.83,388.50 913.61,388.50 914.40,388.50 915.18,388.50 915.96,388.50 916.74,388.50 917.52,388.50 918.30,388.50 919.08,388.50 919.87,388.50 920.65,388.50 921.43,388.50 922.21,388.50 922.99,388.50 923.77,388.50 924.55,388.50 925.34,388.50 926.12,388.50 926.90,388.50 927.68,388.50 928.46,388.50 929.24,388.50 930.03,388.50 930.81,388.50 931.59,388.50 932.37,388.50 933.15,388.50 933.93,388.50 934.71,388.50 935.50,388.50 936.28,388.50 937.06,388.50 937.84,388.50 938.62,388.50 939.40,388.50 940.18,388.50 940.97,388.50 941.75,388.50 942.53,388.50 943.31,388.50 944.09,388.50 944.87,388.50 945.66,388.50 946.44,388.50 947.22,388.50 948.00,388.50"/>
<text x="517.0" y="517" text-anchor="middle" font-size="13">step</text>
<text x="86" y="546" font-size="18" font-weight="700">train/volume_mean</text>
<text x="948" y="546" text-anchor="end" font-size="13">latest step=1104 value=0.7432</text>
<line class="grid" x1="86" y1="566.00" x2="948" y2="566.00"/>
<text x="76" y="570.00" text-anchor="end" font-size="12">1.049</text>
<line class="grid" x1="86" y1="607.25" x2="948" y2="607.25"/>
<text x="76" y="611.25" text-anchor="end" font-size="12">0.7996</text>
<line class="grid" x1="86" y1="648.50" x2="948" y2="648.50"/>
<text x="76" y="652.50" text-anchor="end" font-size="12">0.55</text>
<line class="grid" x1="86" y1="689.75" x2="948" y2="689.75"/>
<text x="76" y="693.75" text-anchor="end" font-size="12">0.3004</text>
<line class="grid" x1="86" y1="731.00" x2="948" y2="731.00"/>
<text x="76" y="735.00" text-anchor="end" font-size="12">0.05083</text>
<line class="grid" x1="86.00" y1="566" x2="86.00" y2="731"/>
<text x="86.00" y="753" text-anchor="middle" font-size="12">1</text>
<line class="grid" x1="301.50" y1="566" x2="301.50" y2="731"/>
<text x="301.50" y="753" text-anchor="middle" font-size="12">276.8</text>
<line class="grid" x1="517.00" y1="566" x2="517.00" y2="731"/>
<text x="517.00" y="753" text-anchor="middle" font-size="12">552.5</text>
<line class="grid" x1="732.50" y1="566" x2="732.50" y2="731"/>
<text x="732.50" y="753" text-anchor="middle" font-size="12">828.2</text>
<line class="grid" x1="948.00" y1="566" x2="948.00" y2="731"/>
<text x="948.00" y="753" text-anchor="middle" font-size="12">1104</text>
<line class="axis" x1="86" y1="731" x2="948" y2="731"/>
<line class="axis" x1="86" y1="566" x2="86" y2="731"/>
<polyline class="line" stroke="#2ca02c" points="86.00,719.62 86.78,710.74 87.56,685.97 88.34,663.08 89.13,634.77 89.91,609.88 90.69,608.00 91.47,622.49 92.25,627.61 93.03,624.71 93.82,622.30 94.60,617.50 95.38,626.75 96.16,625.46 96.94,621.33 97.72,618.00 98.50,614.20 99.29,614.72 100.07,613.21 100.85,609.29 101.63,608.74 102.41,609.06 103.19,610.74 103.97,616.94 104.76,613.43 105.54,615.29 106.32,614.95 107.10,612.19 107.88,613.71 108.66,615.06 109.45,619.88 110.23,621.99 111.01,622.09 111.79,621.53 112.57,622.18 113.35,622.44 114.13,623.03 114.92,624.95 115.70,626.86 116.48,626.55 117.26,624.92 118.04,621.91 118.82,623.06 119.60,621.93 120.39,621.27 121.17,626.36 121.95,623.34 122.73,623.61 123.51,620.88 124.29,619.19 125.08,617.32 125.86,618.20 126.64,618.15 127.42,620.43 128.20,621.81 128.98,620.84 129.76,618.45 130.55,620.30 131.33,623.91 132.11,622.68 132.89,620.15 133.67,620.46 134.45,616.78 135.23,618.64 136.02,618.69 136.80,623.08 137.58,621.72 138.36,622.34 139.14,619.25 139.92,620.26 140.71,622.20 141.49,618.41 142.27,616.14 143.05,613.39 143.83,614.15 144.61,614.14 145.39,619.47 146.18,621.66 146.96,623.97 147.74,622.05 148.52,625.09 149.30,619.58 150.08,617.65 150.86,615.58 151.65,614.14 152.43,618.58 153.21,619.41 153.99,624.15 154.77,625.22 155.55,624.24 156.34,624.79 157.12,622.61 157.90,619.20 158.68,616.67 159.46,610.71 160.24,611.35 161.02,612.92 161.81,614.66 162.59,617.92 163.37,617.88 164.15,620.85 164.93,622.20 165.71,621.70 166.50,623.64 167.28,619.05 168.06,619.95 168.84,617.75 169.62,616.80 170.40,619.09 171.18,618.27 171.97,622.47 172.75,624.40 173.53,627.17 174.31,628.83 175.09,625.69 175.87,624.70 176.65,619.64 177.44,617.58 178.22,615.66 179.00,616.03 179.78,615.43 180.56,619.59 181.34,622.41 182.13,624.45 182.91,624.62 183.69,621.49 184.47,621.48 185.25,623.57 186.03,625.67 186.81,624.35 187.60,623.57 188.38,622.09 189.16,623.83 189.94,623.17 190.72,621.28 191.50,624.88 192.28,622.77 193.07,624.71 193.85,624.48 194.63,625.13 195.41,623.05 196.19,619.75 196.97,617.14 197.76,616.29 198.54,616.16 199.32,619.07 200.10,619.02 200.88,621.89 201.66,621.09 202.44,620.82 203.23,620.34 204.01,621.12 204.79,617.17 205.57,616.51 206.35,613.45 207.13,611.60 207.91,611.94 208.70,615.39 209.48,614.71 210.26,615.86 211.04,617.82 211.82,618.51 212.60,619.40 213.39,616.16 214.17,616.67 214.95,614.80 215.73,615.68 216.51,615.15 217.29,614.84 218.07,617.00 218.86,616.91 219.64,616.12 220.42,615.06 221.20,617.03 221.98,620.81 222.76,618.57 223.54,617.13 224.33,618.98 225.11,615.83 225.89,615.88 226.67,620.12 227.45,618.79 228.23,619.71 229.02,621.22 229.80,621.54 230.58,620.21 231.36,621.03 232.14,617.56 232.92,617.76 233.70,618.23 234.49,615.26 235.27,615.91 236.05,616.57 236.83,612.55 237.61,613.86 238.39,615.19 239.17,613.94 239.96,614.36 240.74,619.13 241.52,618.10 242.30,619.70 243.08,621.06 243.86,620.53 244.65,616.94 245.43,616.92 246.21,616.17 246.99,615.34 247.77,618.08 248.55,620.45 249.33,617.37 250.12,619.89 250.90,618.01 251.68,617.89 252.46,617.03 253.24,613.28 254.02,613.35 254.81,610.72 255.59,614.02 256.37,613.92 257.15,614.45 257.93,615.55 258.71,617.16 259.49,617.60 260.28,616.49 261.06,616.17 261.84,616.16 262.62,616.72 263.40,612.59 264.18,613.82 264.96,615.39 265.75,614.55 266.53,618.84 267.31,616.15 268.09,615.32 268.87,621.29 269.65,620.12 270.44,621.95 271.22,622.52 272.00,619.37 272.78,625.61 273.56,624.94 274.34,623.24 275.12,624.44 275.91,622.32 276.69,624.20 277.47,623.16 278.25,624.13 279.03,623.84 279.81,621.86 280.59,620.00 281.38,620.35 282.16,619.86 282.94,620.46 283.72,618.87 284.50,620.71 285.28,621.35 286.07,617.39 286.85,618.35 287.63,617.97 288.41,616.27 289.19,613.38 289.97,614.75 290.75,614.75 291.54,614.72 292.32,618.12 293.10,621.99 293.88,619.86 294.66,619.44 295.44,618.30 296.22,614.31 297.01,610.81 297.79,610.22 298.57,613.33 299.35,613.93 300.13,617.17 300.91,616.71 301.70,618.51 302.48,617.19 303.26,618.41 304.04,616.43 304.82,616.98 305.60,615.30 306.38,615.46 307.17,614.27 307.95,614.25 308.73,616.09 309.51,617.69 310.29,620.35 311.07,620.63 311.85,618.25 312.64,619.49 313.42,618.24 314.20,617.13 314.98,615.01 315.76,616.31 316.54,614.94 317.33,614.46 318.11,615.64 318.89,617.75 319.67,617.82 320.45,622.65 321.23,617.51 322.01,618.12 322.80,615.91 323.58,617.20 324.36,615.12 325.14,616.29 325.92,616.98 326.70,618.58 327.49,618.99 328.27,618.21 329.05,618.87 329.83,619.40 330.61,618.36 331.39,619.67 332.17,617.60 332.96,618.34 333.74,616.89 334.52,618.51 335.30,615.09 336.08,613.19 336.86,614.61 337.64,613.87 338.43,616.71 339.21,619.35 339.99,617.81 340.77,619.64 341.55,619.72 342.33,621.27 343.12,621.56 343.90,622.96 344.68,620.34 345.46,620.70 346.24,618.70 347.02,622.16 347.80,621.44 348.59,618.85 349.37,621.43 350.15,620.93 350.93,622.26 351.71,623.42 352.49,623.51 353.27,620.61 354.06,622.48 354.84,618.90 355.62,622.89 356.40,617.96 357.18,617.36 357.96,619.44 358.75,621.09 359.53,618.33 360.31,618.79 361.09,617.37 361.87,616.14 362.65,619.05 363.43,621.48 364.22,621.19 365.00,621.06 365.78,621.44 366.56,623.06 367.34,619.42 368.12,618.60 368.90,617.38 369.69,617.16 370.47,615.86 371.25,616.48 372.03,615.92 372.81,620.31 373.59,619.80 374.38,621.73 375.16,621.99 375.94,623.67 376.72,624.36 377.50,625.12 378.28,623.98 379.06,625.10 379.85,625.22 380.63,622.39 381.41,623.25 382.19,625.28 382.97,624.87 383.75,621.45 384.53,622.21 385.32,620.12 386.10,622.55 386.88,619.47 387.66,620.10 388.44,619.90 389.22,619.01 390.01,620.24 390.79,620.63 391.57,617.83 392.35,617.37 393.13,618.79 393.91,616.41 394.69,619.72 395.48,620.14 396.26,621.09 397.04,620.88 397.82,621.79 398.60,618.06 399.38,617.93 400.17,615.84 400.95,619.74 401.73,619.80 402.51,619.43 403.29,619.00 404.07,619.49 404.85,620.87 405.64,620.20 406.42,620.73 407.20,618.47 407.98,616.67 408.76,615.94 409.54,618.66 410.32,617.87 411.11,618.57 411.89,617.50 412.67,616.81 413.45,618.15 414.23,614.83 415.01,613.88 415.80,613.14 416.58,615.11 417.36,615.76 418.14,618.04 418.92,618.41 419.70,616.54 420.48,618.26 421.27,617.10 422.05,616.65 422.83,614.95 423.61,614.94 424.39,616.93 425.17,615.67 425.95,616.93 426.74,619.35 427.52,619.20 428.30,618.06 429.08,620.68 429.86,618.74 430.64,620.27 431.43,617.83 432.21,621.52 432.99,618.08 433.77,620.99 434.55,618.95 435.33,621.63 436.11,621.17 436.90,621.28 437.68,622.21 438.46,618.75 439.24,617.74 440.02,613.83 440.80,615.71 441.58,615.08 442.37,616.52 443.15,616.92 443.93,619.26 444.71,618.99 445.49,619.58 446.27,620.36 447.06,616.93 447.84,618.81 448.62,617.66 449.40,616.95 450.18,616.70 450.96,617.58 451.74,617.63 452.53,617.48 453.31,619.88 454.09,619.02 454.87,619.94 455.65,618.03 456.43,617.51 457.21,615.29 458.00,613.96 458.78,615.03 459.56,615.90 460.34,616.42 461.12,616.65 461.90,620.64 462.69,619.07 463.47,617.88 464.25,616.86 465.03,618.59 465.81,621.43 466.59,621.80 467.37,620.14 468.16,618.42 468.94,620.54 469.72,620.86 470.50,621.40 471.28,619.57 472.06,616.10 472.84,615.60 473.63,616.44 474.41,613.55 475.19,615.54 475.97,617.54 476.75,616.43 477.53,621.56 478.32,621.10 479.10,622.49 479.88,620.99 480.66,618.43 481.44,615.74 482.22,616.49 483.00,614.02 483.79,614.42 484.57,613.67 485.35,614.62 486.13,615.84 486.91,617.19 487.69,620.85 488.48,620.17 489.26,620.64 490.04,621.39 490.82,622.62 491.60,621.85 492.38,620.01 493.16,618.28 493.95,618.39 494.73,620.78 495.51,617.59 496.29,622.71 497.07,622.70 497.85,625.16 498.63,626.73 499.42,625.16 500.20,625.92 500.98,624.06 501.76,623.59 502.54,624.80 503.32,622.58 504.11,622.95 504.89,624.94 505.67,623.19 506.45,621.87 507.23,620.30 508.01,621.33 508.79,618.39 509.58,619.24 510.36,619.35 511.14,619.49 511.92,619.43 512.70,618.12 513.48,618.51 514.26,618.19 515.05,614.24 515.83,615.77 516.61,618.06 517.39,615.98 518.17,615.75 518.95,617.19 519.74,614.44 520.52,615.64 521.30,615.46 522.08,618.34 522.86,617.86 523.64,618.42 524.42,619.27 525.21,620.59 525.99,623.68 526.77,622.01 527.55,624.03 528.33,621.78 529.11,621.38 529.89,620.54 530.68,616.01 531.46,616.89 532.24,619.64 533.02,618.84 533.80,619.52 534.58,622.60 535.37,620.60 536.15,619.14 536.93,617.73 537.71,618.19 538.49,615.77 539.27,618.35 540.05,618.53 540.84,620.17 541.62,619.74 542.40,619.14 543.18,621.34 543.96,620.16 544.74,621.30 545.52,620.09 546.31,617.71 547.09,616.87 547.87,617.26 548.65,616.59 549.43,619.13 550.21,619.11 551.00,617.17 551.78,619.08 552.56,621.77 553.34,621.34 554.12,620.74 554.90,619.89 555.68,620.01 556.47,620.25 557.25,620.70 558.03,620.53 558.81,619.83 559.59,620.14 560.37,621.21 561.16,621.57 561.94,623.56 562.72,621.49 563.50,621.43 564.28,622.79 565.06,622.62 565.84,622.36 566.63,621.87 567.41,622.30 568.19,625.24 568.97,624.52 569.75,627.26 570.53,623.73 571.31,625.23 572.10,624.83 572.88,625.86 573.66,626.75 574.44,627.20 575.22,624.70 576.00,623.21 576.79,620.71 577.57,622.71 578.35,624.20 579.13,624.56 579.91,624.16 580.69,625.20 581.47,623.86 582.26,623.25 583.04,622.02 583.82,622.99 584.60,624.48 585.38,620.72 586.16,621.99 586.94,624.88 587.73,623.01 588.51,625.22 589.29,627.54 590.07,627.73 590.85,626.92 591.63,626.01 592.42,625.63 593.20,626.11 593.98,625.78 594.76,624.74 595.54,626.19 596.32,627.52 597.10,623.64 597.89,625.39 598.67,624.05 599.45,624.71 600.23,623.09 601.01,623.99 601.79,622.83 602.57,624.67 603.36,624.78 604.14,625.35 604.92,622.65 605.70,622.64 606.48,621.68 607.26,619.20 608.05,621.39 608.83,620.43 609.61,621.46 610.39,622.91 611.17,622.28 611.95,624.83 612.73,622.01 613.52,623.54 614.30,622.63 615.08,621.43 615.86,621.83 616.64,619.62 617.42,622.94 618.20,622.85 618.99,622.80 619.77,622.65 620.55,624.99 621.33,624.28 622.11,622.23 622.89,620.86 623.68,622.03 624.46,621.20 625.24,622.26 626.02,622.99 626.80,622.16 627.58,623.98 628.36,624.58 629.15,622.02 629.93,623.32 630.71,622.66 631.49,619.99 632.27,621.12 633.05,619.72 633.83,618.86 634.62,619.39 635.40,618.41 636.18,621.49 636.96,619.35 637.74,622.45 638.52,623.54 639.31,622.01 640.09,624.67 640.87,621.36 641.65,619.57 642.43,619.33 643.21,617.76 643.99,617.26 644.78,618.41 645.56,619.08 646.34,620.86 647.12,622.78 647.90,621.44 648.68,622.70 649.47,620.61 650.25,620.68 651.03,621.12 651.81,619.99 652.59,619.70 653.37,619.60 654.15,618.56 654.94,619.50 655.72,623.06 656.50,621.23 657.28,622.53 658.06,623.56 658.84,624.18 659.62,623.78 660.41,622.10 661.19,621.58 661.97,622.69 662.75,620.16 663.53,620.29 664.31,621.03 665.10,623.16 665.88,624.18 666.66,622.30 667.44,624.79 668.22,622.24 669.00,623.77 669.78,622.49 670.57,619.09 671.35,619.76 672.13,618.69 672.91,619.75 673.69,620.04 674.47,621.34 675.25,621.12 676.04,623.58 676.82,624.52 677.60,623.35 678.38,622.26 679.16,624.06 679.94,620.47 680.73,620.71 681.51,619.70 682.29,620.07 683.07,620.44 683.85,619.67 684.63,620.36 685.41,620.24 686.20,621.40 686.98,621.71 687.76,619.82 688.54,621.11 689.32,623.61 690.10,622.62 690.88,623.54 691.67,623.99 692.45,624.15 693.23,624.94 694.01,625.49 694.79,624.63 695.57,624.25 696.36,625.08 697.14,625.96 697.92,625.35 698.70,625.62 699.48,624.94 700.26,625.68 701.04,627.07 701.83,627.28 702.61,626.99 703.39,626.66 704.17,628.96 704.95,625.44 705.73,626.49 706.51,624.85 707.30,628.02 708.08,624.76 708.86,624.45 709.64,624.31 710.42,624.65 711.20,624.20 711.99,623.22 712.77,620.77 713.55,621.52 714.33,622.22 715.11,622.02 715.89,623.06 716.67,622.69 717.46,624.86 718.24,626.38 719.02,625.70 719.80,627.90 720.58,627.78 721.36,625.89 722.15,625.62 722.93,626.31 723.71,625.87 724.49,625.83 725.27,626.00 726.05,627.60 726.83,627.45 727.62,626.83 728.40,627.66 729.18,627.72 729.96,626.54 730.74,621.91 731.52,623.24 732.30,620.65 733.09,618.64 733.87,620.05 734.65,618.68 735.43,616.61 736.21,615.18 736.99,615.75 737.78,616.97 738.56,616.35 739.34,617.13 740.12,618.34 740.90,617.68 741.68,619.11 742.46,618.48 743.25,621.20 744.03,622.56 744.81,621.37 745.59,623.06 746.37,622.98 747.15,622.37 747.93,623.78 748.72,624.99 749.50,622.62 750.28,623.30 751.06,622.89 751.84,623.47 752.62,623.12 753.41,622.98 754.19,624.69 754.97,623.72 755.75,623.72 756.53,625.15 757.31,624.40 758.09,625.79 758.88,626.56 759.66,625.50 760.44,626.01 761.22,626.26 762.00,625.51 762.78,624.44 763.56,625.27 764.35,627.61 765.13,628.66 765.91,627.56 766.69,625.81 767.47,625.45 768.25,624.10 769.04,622.09 769.82,621.94 770.60,623.09 771.38,621.14 772.16,623.06 772.94,623.54 773.72,625.68 774.51,626.71 775.29,627.03 776.07,627.92 776.85,627.77 777.63,627.52 778.41,627.90 779.19,625.50 779.98,627.40 780.76,628.00 781.54,625.44 782.32,625.79 783.10,623.88 783.88,625.62 784.67,625.93 785.45,625.55 786.23,625.69 787.01,625.80 787.79,626.55 788.57,624.61 789.35,626.65 790.14,626.91 790.92,623.77 791.70,623.97 792.48,625.24 793.26,625.40 794.04,624.54 794.83,623.91 795.61,624.99 796.39,625.73 797.17,625.35 797.95,625.68 798.73,626.16 799.51,626.03 800.30,627.15 801.08,624.54 801.86,624.10 802.64,622.65 803.42,624.92 804.20,622.44 804.98,623.89 805.77,625.83 806.55,624.36 807.33,628.31 808.11,625.72 808.89,626.07 809.67,625.68 810.46,625.82 811.24,625.79 812.02,626.44 812.80,625.67 813.58,624.35 814.36,623.50 815.14,625.48 815.93,625.29 816.71,626.98 817.49,628.03 818.27,629.17 819.05,629.43 819.83,628.59 820.61,626.36 821.40,627.12 822.18,625.88 822.96,624.81 823.74,627.28 824.52,623.15 825.30,622.50 826.09,622.63 826.87,622.26 827.65,623.44 828.43,624.44 829.21,623.90 829.99,627.05 830.77,639.98 831.56,627.50 832.34,621.18 833.12,625.08 833.90,623.60 834.68,619.65 835.46,618.67 836.24,619.49 837.03,619.43 837.81,617.18 838.59,616.53 839.37,618.09 840.15,616.91 840.93,617.76 841.72,619.12 842.50,622.94 843.28,624.49 844.06,624.39 844.84,626.67 845.62,625.21 846.40,625.06 847.19,624.49 847.97,627.41 848.75,623.97 849.53,623.21 850.31,622.57 851.09,621.57 851.87,622.75 852.66,621.50 853.44,623.87 854.22,624.91 855.00,624.54 855.78,626.83 856.56,626.06 857.35,625.96 858.13,626.87 858.91,628.04 859.69,629.10 860.47,626.86 861.25,629.35 862.03,627.38 862.82,626.69 863.60,626.10 864.38,626.64 865.16,627.78 865.94,626.77 866.72,625.31 867.50,622.86 868.29,625.57 869.07,626.94 869.85,624.57 870.63,623.22 871.41,622.75 872.19,622.47 872.98,625.35 873.76,623.79 874.54,623.15 875.32,621.63 876.10,623.55 876.88,623.59 877.66,620.98 878.45,622.76 879.23,624.68 880.01,623.95 880.79,624.79 881.57,626.74 882.35,626.76 883.14,629.76 883.92,629.66 884.70,630.27 885.48,629.43 886.26,630.92 887.04,629.91 887.82,629.80 888.61,629.70 889.39,629.20 890.17,628.84 890.95,628.58 891.73,629.75 892.51,631.22 893.29,627.61 894.08,629.15 894.86,629.37 895.64,629.05 896.42,631.48 897.20,630.03 897.98,628.91 898.77,628.65 899.55,627.54 900.33,625.68 901.11,623.00 901.89,625.63 902.67,622.67 903.45,599.30 904.24,592.86 905.02,577.95 905.80,577.38 906.58,583.49 907.36,592.63 908.14,604.08 908.92,606.06 909.71,616.32 910.49,616.87 911.27,614.72 912.05,612.84 912.83,615.30 913.61,618.05 914.40,617.93 915.18,616.56 915.96,617.22 916.74,617.99 917.52,617.42 918.30,617.24 919.08,617.25 919.87,615.83 920.65,615.28 921.43,614.12 922.21,612.70 922.99,610.43 923.77,611.73 924.55,614.44 925.34,616.36 926.12,616.60 926.90,617.88 927.68,617.55 928.46,616.55 929.24,616.61 930.03,614.87 930.81,616.48 931.59,614.67 932.37,617.31 933.15,614.79 933.93,618.21 934.71,618.25 935.50,617.70 936.28,617.84 937.06,620.00 937.84,618.18 938.62,619.33 939.40,616.57 940.18,620.26 940.97,618.87 941.75,619.91 942.53,619.60 943.31,621.31 944.09,618.44 944.87,616.82 945.66,619.08 946.44,617.35 947.22,617.01 948.00,616.57"/>
<text x="517.0" y="777" text-anchor="middle" font-size="13">step</text>
</svg>